<?xml version="1.0" encoding="UTF-8" standalone="no"?>
<!-- Created with Inkscape (http://www.inkscape.org/) -->

<svg
   xmlns:dc="http://purl.org/dc/elements/1.1/"
   xmlns:cc="http://creativecommons.org/ns#"
   xmlns:rdf="http://www.w3.org/1999/02/22-rdf-syntax-ns#"
   xmlns:svg="http://www.w3.org/2000/svg"
   xmlns="http://www.w3.org/2000/svg"
   xmlns:xlink="http://www.w3.org/1999/xlink"
   xmlns:sodipodi="http://sodipodi.sourceforge.net/DTD/sodipodi-0.dtd"
   xmlns:inkscape="http://www.inkscape.org/namespaces/inkscape"
   width="182.23329mm"
   height="177.49844mm"
   viewBox="0 0 645.70835 628.93114"
   id="svg2"
   version="1.1"
   inkscape:version="0.91 r13725"
   sodipodi:docname="logo.svg">
  <defs
     id="defs4">
    <linearGradient
       id="0">
      <stop
         id="stop3450"
         stop-color="#00aaec" />
      <stop
         id="stop3452"
         offset="1"
         stop-color="#0076d0" />
    </linearGradient>
    <linearGradient
       gradientUnits="userSpaceOnUse"
       x2="641.65002"
       x1="255.67"
       id="1"
       xlink:href="#0" />
    <linearGradient
       gradientUnits="userSpaceOnUse"
       x2="861.70001"
       x1="725.20001"
       id="2"
       xlink:href="#0" />
    <clipPath
       id="clipPath5029"
       clipPathUnits="userSpaceOnUse">
      <rect
         transform="scale(1,-1)"
         y="-790.0863"
         x="271.35229"
         height="94.85714"
         width="53.714287"
         id="rect5031"
         style="fill:#0000ff;fill-rule:evenodd;stroke:#000000;stroke-width:0.80000001px;stroke-linecap:butt;stroke-linejoin:miter;stroke-opacity:1" />
    </clipPath>
    <clipPath
       clipPathUnits="userSpaceOnUse"
       id="clipPath2999">
      <path
         d="m 0,0 595.276,0 0,841.89 L 0,841.89 0,0 Z"
         id="path3001"
         inkscape:connector-curvature="0" />
    </clipPath>
    <clipPath
       clipPathUnits="userSpaceOnUse"
       id="clipPath3007">
      <path
         d="m 0,0 595.278,0 0,841.887 L 0,841.887 0,0 Z"
         id="path3009"
         inkscape:connector-curvature="0" />
    </clipPath>
    <clipPath
       clipPathUnits="userSpaceOnUse"
       id="clipPath3017">
      <path
         d="m -8.505,-8.505 612.288,0 0,858.897 -612.288,0 0,-858.897 z"
         id="path3019"
         inkscape:connector-curvature="0"
         style="clip-rule:evenodd" />
    </clipPath>
    <clipPath
       clipPathUnits="userSpaceOnUse"
       id="clipPath3025">
      <path
         d="m -44.073,850.392 683.424,0 0,-858.897 -683.424,0 0,858.897 z"
         id="path3027"
         inkscape:connector-curvature="0" />
    </clipPath>
    <clipPath
       clipPathUnits="userSpaceOnUse"
       id="clipPath3033">
      <path
         d="M 595.278,841.887 0,841.887 0,0 l 595.278,0 0,841.887 z M 46.35,650.034 l 505.917,0 0,-71.514 -505.917,0 0,71.514 z"
         id="path3035"
         inkscape:connector-curvature="0" />
    </clipPath>
    <clipPath
       clipPathUnits="userSpaceOnUse"
       id="clipPath3045">
      <path
         d="m 8.505,700.155 578.268,0 0,85.041 -578.268,0 0,-85.041 z"
         id="path3047"
         inkscape:connector-curvature="0"
         style="clip-rule:evenodd" />
    </clipPath>
    <clipPath
       clipPathUnits="userSpaceOnUse"
       id="clipPath3153">
      <path
         d="m 29.763,28.962 110.16,0 0,45.126 -110.16,0 0,-45.126 z"
         id="path3155"
         inkscape:connector-curvature="0"
         style="clip-rule:evenodd" />
    </clipPath>
    <clipPath
       clipPathUnits="userSpaceOnUse"
       id="clipPath3161">
      <path
         d="m 0.938,2.957 1,0 0,1 -1,0 0,-1 z"
         id="path3163"
         inkscape:connector-curvature="0" />
    </clipPath>
    <clipPath
       clipPathUnits="userSpaceOnUse"
       id="clipPath3173">
      <path
         d="m 552.267,650.034 -505.917,0 0,-71.514 505.917,0 0,71.514 z"
         id="path3175"
         inkscape:connector-curvature="0" />
    </clipPath>
    <clipPath
       clipPathUnits="userSpaceOnUse"
       id="clipPath3181">
      <path
         d="m 46.162,578.346 506.327,0 0,72.006 -506.327,0 0,-72.006 z"
         id="path3183"
         inkscape:connector-curvature="0" />
    </clipPath>
    <clipPath
       clipPathUnits="userSpaceOnUse"
       id="clipPath3201">
      <path
         d="m 433.701,35.901 153.072,0 0,30.717 -153.072,0 0,-30.717 z"
         id="path3203"
         inkscape:connector-curvature="0" />
    </clipPath>
    <clipPath
       clipPathUnits="userSpaceOnUse"
       id="clipPath3289">
      <path
         d="m 481.321,50.262 c -1.215,1.215 -1.216,3.185 -0.001,4.401 1.215,1.215 3.185,1.215 4.401,0 1.215,-1.215 1.216,-3.185 10e-4,-4.401 -1.215,-1.215 -3.186,-1.216 -4.401,0"
         id="path3291"
         inkscape:connector-curvature="0" />
    </clipPath>
    <clipPath
       clipPathUnits="userSpaceOnUse"
       id="clipPath3305">
      <path
         d="m 481.292,50.188 c -0.254,0.255 -0.457,0.542 -0.608,0.848 1.186,-1.117 3.052,-1.095 4.212,0.064 1.159,1.16 1.18,3.027 0.063,4.212 0.306,-0.151 0.593,-0.353 0.847,-0.608 1.247,-1.247 1.248,-3.268 0.001,-4.515 -1.246,-1.247 -3.268,-1.247 -4.515,-10e-4"
         id="path3307"
         inkscape:connector-curvature="0" />
    </clipPath>
    <clipPath
       clipPathUnits="userSpaceOnUse"
       id="clipPath3313">
      <path
         d="m 481.321,50.262 c -1.215,1.215 -1.216,3.185 -0.001,4.401 1.215,1.215 3.185,1.215 4.401,0 1.215,-1.215 1.216,-3.185 10e-4,-4.401 -1.215,-1.215 -3.186,-1.216 -4.401,0"
         id="path3315"
         inkscape:connector-curvature="0" />
    </clipPath>
    <clipPath
       clipPathUnits="userSpaceOnUse"
       id="clipPath3323">
      <path
         d="m 481.321,50.262 c -1.215,1.215 -1.216,3.185 -0.001,4.401 1.215,1.215 3.185,1.215 4.401,0 1.215,-1.215 1.216,-3.185 10e-4,-4.401 -1.215,-1.215 -3.186,-1.216 -4.401,0"
         id="path3325"
         inkscape:connector-curvature="0" />
    </clipPath>
    <style
       type="text/css"
       id="style2989">
   
    .fil1 {fill:#2D4287}
    .fil3 {fill:#912747}
    .fil0 {fill:#B0ADB9}
    .fil2 {fill:#FEFEFE}
   
  </style>
    <clipPath
       id="clipPath6125-9">
      <path
         id="path6127-5"
         d="m 297.905,392.154 c -3.142,-10e-4 -5.688,-2.55 -5.687,-5.692 0.002,-3.142 2.551,-5.689 5.693,-5.686 3.142,10e-4 5.688,2.55 5.686,5.692 -10e-4,3.141 -2.549,5.686 -5.688,5.686 -10e-4,0 -0.003,0 -0.004,0"
         inkscape:connector-curvature="0" />
    </clipPath>
    <clipPath
       id="clipPath6037-0">
      <path
         id="path6039-7"
         d="m 297.901,398.972 c -6.908,-0.002 -12.505,-5.605 -12.501,-12.514 0.003,-6.909 5.606,-12.505 12.514,-12.501 6.909,0.002 12.506,5.606 12.502,12.514 -0.003,6.906 -5.603,12.501 -12.508,12.501 -0.003,0 -0.005,0 -0.007,0"
         inkscape:connector-curvature="0" />
    </clipPath>
    <clipPath
       id="clipPath5949-4">
      <path
         id="path5951-5"
         d="m 297.898,405.359 c -7.423,-0.004 -13.844,-4.289 -16.93,-10.517 -1.252,-2.527 -1.955,-5.375 -1.954,-8.387 10e-4,-1.194 0.113,-2.362 0.325,-3.496 l 5.992,0.004 c -0.308,1.112 -0.474,2.284 -0.475,3.495 -10e-4,2.082 0.486,4.051 1.352,5.797 2.132,4.302 6.566,7.259 11.693,7.261 5.123,0.003 9.557,-2.946 11.695,-7.239 0.872,-1.749 1.362,-3.72 1.363,-5.806 10e-4,-1.21 -0.164,-2.382 -0.472,-3.495 l 5.993,0.003 c 0.211,1.133 0.322,2.302 0.321,3.497 -10e-4,3.034 -0.717,5.9 -1.99,8.439 -3.102,6.194 -9.506,10.444 -16.903,10.444 -0.003,0 -0.007,0 -0.01,0"
         inkscape:connector-curvature="0" />
    </clipPath>
    <style
       id="style6"
       type="text/css" />
    <clipPath
       id="id0-0">
      <path
         inkscape:connector-curvature="0"
         d="m 8633510,5714190 c -24600,1540 -49320,2310 -74220,2310 -543320,0 -1805320,-278760 -2291740,-696690 -509520,386070 -1792310,696690 -2326840,696690 -25070,0 -49840,-3070 -74390,-7570 -1240,121770 5090,247990 12650,362790 28280,429090 103540,859700 217800,1274050 359680,1304120 1095870,2412390 2151410,3253100 1056450,-841400 1793430,-1950700 2153930,-3255750 114440,-414300 189940,-844870 218490,-1273940 7470,-112460 13760,-235680 12910,-354990 z"
         id="path7-8" />
    </clipPath>
    <clipPath
       id="id0-7">
      <path
         inkscape:connector-curvature="0"
         d="m 8633510,5714190 c -24600,1540 -49320,2310 -74220,2310 -543320,0 -1805320,-278760 -2291740,-696690 -509520,386070 -1792310,696690 -2326840,696690 -25070,0 -49840,-3070 -74390,-7570 -1240,121770 5090,247990 12650,362790 28280,429090 103540,859700 217800,1274050 359680,1304120 1095870,2412390 2151410,3253100 1056450,-841400 1793430,-1950700 2153930,-3255750 114440,-414300 189940,-844870 218490,-1273940 7470,-112460 13760,-235680 12910,-354990 z"
         id="path7-4" />
    </clipPath>
    <clipPath
       id="id0">
      <path
         inkscape:connector-curvature="0"
         d="m 8633510,5714190 c -24600,1540 -49320,2310 -74220,2310 -543320,0 -1805320,-278760 -2291740,-696690 -509520,386070 -1792310,696690 -2326840,696690 -25070,0 -49840,-3070 -74390,-7570 -1240,121770 5090,247990 12650,362790 28280,429090 103540,859700 217800,1274050 359680,1304120 1095870,2412390 2151410,3253100 1056450,-841400 1793430,-1950700 2153930,-3255750 114440,-414300 189940,-844870 218490,-1273940 7470,-112460 13760,-235680 12910,-354990 z"
         id="path7" />
    </clipPath>
    <path
       sodipodi:nodetypes="csc"
       inkscape:connector-curvature="0"
       id="path3533-1"
       d="M 364.8078,90.709934 C 360.98259,116.24345 395.71184,311.90746 587.91583,310.40299 811.03843,308.6565 811.53743,90.371474 813.83373,90.379444"
       style="fill:none;stroke:#000000;stroke-width:1px;stroke-linecap:butt;stroke-linejoin:miter;stroke-opacity:1" />
    <path
       sodipodi:open="true"
       sodipodi:end="1.5778873"
       sodipodi:start="4.7154838"
       transform="matrix(-0.01208376,0.97595172,0.96678104,0.01197021,-935.81727,1157.3714)"
       d="m -563.90937,959.50766 a 247.48737,227.28432 0 0 1 214.11012,114.51354 247.48737,227.28432 0 0 1 -1.26188,227.5435 247.48737,227.28432 0 0 1 -215.36907,112.5048"
       sodipodi:ry="227.28432"
       sodipodi:rx="247.48737"
       sodipodi:cy="1186.7909"
       sodipodi:cx="-564.67529"
       id="path4509-9"
       style="fill:none;stroke:#000000;stroke-width:3;stroke-miterlimit:4;stroke-dasharray:none;stroke-dashoffset:0;stroke-opacity:1"
       sodipodi:type="arc" />
    <path
       sodipodi:open="true"
       sodipodi:end="1.5778873"
       sodipodi:start="4.7154838"
       transform="matrix(-0.01208376,0.97595172,0.96678104,0.01197021,-935.81727,1157.3714)"
       d="m -563.90937,959.50766 a 247.48737,227.28432 0 0 1 214.11012,114.51354 247.48737,227.28432 0 0 1 -1.26188,227.5435 247.48737,227.28432 0 0 1 -215.36907,112.5048"
       sodipodi:ry="227.28432"
       sodipodi:rx="247.48737"
       sodipodi:cy="1186.7909"
       sodipodi:cx="-564.67529"
       id="path4509-9-2"
       style="fill:none;stroke:#000000;stroke-width:3;stroke-miterlimit:4;stroke-dasharray:none;stroke-dashoffset:0;stroke-opacity:1"
       sodipodi:type="arc" />
    <path
       sodipodi:open="true"
       sodipodi:end="1.5778873"
       sodipodi:start="4.7154838"
       transform="matrix(-0.01208376,0.97595172,0.96678104,0.01197021,-935.81727,1157.3714)"
       d="m -563.90937,959.50766 a 247.48737,227.28432 0 0 1 214.11012,114.51354 247.48737,227.28432 0 0 1 -1.26188,227.5435 247.48737,227.28432 0 0 1 -215.36907,112.5048"
       sodipodi:ry="227.28432"
       sodipodi:rx="247.48737"
       sodipodi:cy="1186.7909"
       sodipodi:cx="-564.67529"
       id="path4509-9-2-1"
       style="fill:none;stroke:#000000;stroke-width:3;stroke-miterlimit:4;stroke-dasharray:none;stroke-dashoffset:0;stroke-opacity:1"
       sodipodi:type="arc" />
    <path
       sodipodi:open="true"
       sodipodi:end="1.5778873"
       sodipodi:start="4.7154838"
       transform="matrix(-1.0372291,0,0,0.99987386,2071.4937,-124.29873)"
       d="m 820.70297,717.18701 a 227.14285,218.57143 0 0 1 196.50933,110.12369 227.14285,218.57143 0 0 1 -1.1581,218.8207 227.14285,218.57143 0 0 1 -197.66485,108.1919"
       sodipodi:ry="218.57143"
       sodipodi:rx="227.14285"
       sodipodi:cy="935.75739"
       sodipodi:cx="820"
       id="path4629-2"
       style="fill:none;stroke:#000000;stroke-width:3;stroke-miterlimit:4;stroke-dasharray:none;stroke-dashoffset:0;stroke-opacity:1"
       sodipodi:type="arc" />
    <path
       sodipodi:open="true"
       sodipodi:end="1.5778873"
       sodipodi:start="4.7154838"
       transform="matrix(-1.0372291,0,0,0.99987386,2071.4937,-124.29873)"
       d="m 820.70297,717.18701 a 227.14285,218.57143 0 0 1 196.50933,110.12369 227.14285,218.57143 0 0 1 -1.1581,218.8207 227.14285,218.57143 0 0 1 -197.66485,108.1919"
       sodipodi:ry="218.57143"
       sodipodi:rx="227.14285"
       sodipodi:cy="935.75739"
       sodipodi:cx="820"
       id="path4629-2-4"
       style="fill:none;stroke:#000000;stroke-width:3;stroke-miterlimit:4;stroke-dasharray:none;stroke-dashoffset:0;stroke-opacity:1"
       sodipodi:type="arc" />
    <path
       sodipodi:type="arc"
       style="fill:none;stroke:#000000;stroke-width:3;stroke-miterlimit:4;stroke-dasharray:none;stroke-dashoffset:0;stroke-opacity:1"
       id="path4629-2-4-1"
       sodipodi:cx="820"
       sodipodi:cy="935.75739"
       sodipodi:rx="227.14285"
       sodipodi:ry="218.57143"
       d="m 820.70297,717.18701 a 227.14285,218.57143 0 0 1 196.50933,110.12369 227.14285,218.57143 0 0 1 -1.1581,218.8207 227.14285,218.57143 0 0 1 -197.66485,108.1919"
       transform="matrix(-1.0372291,0,0,0.99987386,2071.4937,-124.29873)"
       sodipodi:start="4.7154838"
       sodipodi:end="1.5778873"
       sodipodi:open="true" />
    <path
       sodipodi:type="arc"
       style="fill:none;stroke:#000000;stroke-width:3;stroke-miterlimit:4;stroke-dasharray:none;stroke-dashoffset:0;stroke-opacity:1"
       id="path4629-2-7"
       sodipodi:cx="820"
       sodipodi:cy="935.75739"
       sodipodi:rx="227.14285"
       sodipodi:ry="218.57143"
       d="m 820.70297,717.18701 a 227.14285,218.57143 0 0 1 196.50933,110.12369 227.14285,218.57143 0 0 1 -1.1581,218.8207 227.14285,218.57143 0 0 1 -197.66485,108.1919"
       transform="matrix(-1.0372291,0,0,0.99987386,2071.4937,-124.29873)"
       sodipodi:start="4.7154838"
       sodipodi:end="1.5778873"
       sodipodi:open="true" />
    <path
       sodipodi:type="arc"
       style="fill:none;stroke:#000000;stroke-width:3;stroke-miterlimit:4;stroke-dasharray:none;stroke-dashoffset:0;stroke-opacity:1"
       id="path4509-9-2-1-1"
       sodipodi:cx="-564.67529"
       sodipodi:cy="1186.7909"
       sodipodi:rx="247.48737"
       sodipodi:ry="227.28432"
       d="m -563.90937,959.50766 a 247.48737,227.28432 0 0 1 214.11012,114.51354 247.48737,227.28432 0 0 1 -1.26188,227.5435 247.48737,227.28432 0 0 1 -215.36907,112.5048"
       transform="matrix(-0.01208376,0.97595172,0.96678104,0.01197021,-935.81727,1157.3714)"
       sodipodi:start="4.7154838"
       sodipodi:end="1.5778873"
       sodipodi:open="true" />
    <path
       sodipodi:type="arc"
       style="fill:none;stroke:#000000;stroke-width:3;stroke-miterlimit:4;stroke-dasharray:none;stroke-dashoffset:0;stroke-opacity:1"
       id="path4509-9-2-5"
       sodipodi:cx="-564.67529"
       sodipodi:cy="1186.7909"
       sodipodi:rx="247.48737"
       sodipodi:ry="227.28432"
       d="m -563.90937,959.50766 a 247.48737,227.28432 0 0 1 214.11012,114.51354 247.48737,227.28432 0 0 1 -1.26188,227.5435 247.48737,227.28432 0 0 1 -215.36907,112.5048"
       transform="matrix(-0.01208376,0.97595172,0.96678104,0.01197021,-935.81727,1157.3714)"
       sodipodi:start="4.7154838"
       sodipodi:end="1.5778873"
       sodipodi:open="true" />
    <path
       sodipodi:type="arc"
       style="fill:none;stroke:#000000;stroke-width:3;stroke-miterlimit:4;stroke-dasharray:none;stroke-dashoffset:0;stroke-opacity:1"
       id="path4509-9-5"
       sodipodi:cx="-564.67529"
       sodipodi:cy="1186.7909"
       sodipodi:rx="247.48737"
       sodipodi:ry="227.28432"
       d="m -563.90937,959.50766 a 247.48737,227.28432 0 0 1 214.11012,114.51354 247.48737,227.28432 0 0 1 -1.26188,227.5435 247.48737,227.28432 0 0 1 -215.36907,112.5048"
       transform="matrix(-0.01208376,0.97595172,0.96678104,0.01197021,-935.81727,1157.3714)"
       sodipodi:start="4.7154838"
       sodipodi:end="1.5778873"
       sodipodi:open="true" />
    <path
       style="fill:none;stroke:#000000;stroke-width:1px;stroke-linecap:butt;stroke-linejoin:miter;stroke-opacity:1"
       d="M 364.8078,90.709934 C 360.98259,116.24345 395.71184,311.90746 587.91583,310.40299 811.03843,308.6565 811.53743,90.371474 813.83373,90.379444"
       id="path3533-1-4"
       inkscape:connector-curvature="0"
       sodipodi:nodetypes="csc" />
    <clipPath
       id="id0-8">
      <path
         id="path7-82"
         d="m 8633510,5714190 c -24600,1540 -49320,2310 -74220,2310 -543320,0 -1805320,-278760 -2291740,-696690 -509520,386070 -1792310,696690 -2326840,696690 -25070,0 -49840,-3070 -74390,-7570 -1240,121770 5090,247990 12650,362790 28280,429090 103540,859700 217800,1274050 359680,1304120 1095870,2412390 2151410,3253100 1056450,-841400 1793430,-1950700 2153930,-3255750 114440,-414300 189940,-844870 218490,-1273940 7470,-112460 13760,-235680 12910,-354990 z"
         inkscape:connector-curvature="0" />
    </clipPath>
    <clipPath
       id="id0-7-9">
      <path
         id="path7-4-4"
         d="m 8633510,5714190 c -24600,1540 -49320,2310 -74220,2310 -543320,0 -1805320,-278760 -2291740,-696690 -509520,386070 -1792310,696690 -2326840,696690 -25070,0 -49840,-3070 -74390,-7570 -1240,121770 5090,247990 12650,362790 28280,429090 103540,859700 217800,1274050 359680,1304120 1095870,2412390 2151410,3253100 1056450,-841400 1793430,-1950700 2153930,-3255750 114440,-414300 189940,-844870 218490,-1273940 7470,-112460 13760,-235680 12910,-354990 z"
         inkscape:connector-curvature="0" />
    </clipPath>
    <clipPath
       id="id0-0-4">
      <path
         id="path7-8-0"
         d="m 8633510,5714190 c -24600,1540 -49320,2310 -74220,2310 -543320,0 -1805320,-278760 -2291740,-696690 -509520,386070 -1792310,696690 -2326840,696690 -25070,0 -49840,-3070 -74390,-7570 -1240,121770 5090,247990 12650,362790 28280,429090 103540,859700 217800,1274050 359680,1304120 1095870,2412390 2151410,3253100 1056450,-841400 1793430,-1950700 2153930,-3255750 114440,-414300 189940,-844870 218490,-1273940 7470,-112460 13760,-235680 12910,-354990 z"
         inkscape:connector-curvature="0" />
    </clipPath>
    <style
       id="style6-5"
       type="text/css" />
    <linearGradient
       gradientUnits="userSpaceOnUse"
       id="id0-4"
       y2="11.7739"
       x2="826.26202"
       y1="1673.47"
       x1="826.26202">
      <stop
         id="stop9"
         offset="0"
         style="stop-color:#ffffff;stop-opacity:1" />
      <stop
         id="stop11"
         offset="0.278431"
         style="stop-color:#fffffc;stop-opacity:1" />
      <stop
         id="stop13"
         offset="0.709804"
         style="stop-color:#ffea01;stop-opacity:1" />
      <stop
         id="stop15"
         offset="1"
         style="stop-color:#c92221;stop-opacity:1" />
    </linearGradient>
    <radialGradient
       gradientUnits="userSpaceOnUse"
       id="id1"
       fy="277.224"
       fx="698.28601"
       r="125.776"
       cy="277.224"
       cx="698.28601">
      <stop
         id="stop18"
         offset="0"
         style="stop-color:#fae300;stop-opacity:1" />
      <stop
         id="stop20"
         offset="0.49019599"
         style="stop-color:#f78b14;stop-opacity:1" />
      <stop
         id="stop22"
         offset="1"
         style="stop-color:#f53327;stop-opacity:1" />
    </radialGradient>
    <style
       id="style6950"
       type="text/css"><![CDATA[
    .fil0 {fill:#C52F33}
    .fil1 {fill:#C52F33;fill-rule:nonzero}
   ]]></style>
    <clipPath
       id="clipPath3028"
       clipPathUnits="userSpaceOnUse">
      <path
         inkscape:connector-curvature="0"
         id="path3030"
         d="m 0,1296 1296,0 L 1296,0 0,0 0,1296 Z" />
    </clipPath>
    <clipPath
       id="clipPath28711">
      <path
         id="path28713"
         d="M 0,841 595,841 595,0 0,0 0,841 Z"
         inkscape:connector-curvature="0" />
    </clipPath>
    <clipPath
       id="clipPath28717">
      <path
         id="path28719"
         d="m 0.36,841.68 595.44,0 L 595.8,0 0.36,0 l 0,841.68 z"
         inkscape:connector-curvature="0" />
    </clipPath>
    <clipPath
       id="clipPath28807">
      <path
         id="path28809"
         d="m 399.685,682.535 68.031,0 0,-70 -68.031,0 0,70 z"
         inkscape:connector-curvature="0" />
    </clipPath>
    <clipPath
       id="clipPath28813">
      <path
         id="path28815"
         d="M 0,841 595,841 595,0 0,0 0,841 Z"
         inkscape:connector-curvature="0" />
    </clipPath>
    <clipPath
       id="clipPath28819">
      <path
         id="path28821"
         d="m 0.36,841.68 595.44,0 L 595.8,0 0.36,0 l 0,841.68 z"
         inkscape:connector-curvature="0" />
    </clipPath>
    <clipPath
       id="clipPath28869">
      <path
         id="path28871"
         d="m 484.724,682.535 68.032,0 0,-70 -68.032,0 0,70 z"
         inkscape:connector-curvature="0" />
    </clipPath>
    <clipPath
       id="clipPath28875">
      <path
         id="path28877"
         d="M 0,841 595,841 595,0 0,0 0,841 Z"
         inkscape:connector-curvature="0" />
    </clipPath>
    <clipPath
       id="clipPath28881">
      <path
         id="path28883"
         d="m 0.36,841.68 595.44,0 L 595.8,0 0.36,0 l 0,841.68 z"
         inkscape:connector-curvature="0" />
    </clipPath>
    <clipPath
       id="clipPath28955">
      <path
         id="path28957"
         d="m 144.567,682.535 68.031,0 0,-70 -68.031,0 0,70 z"
         inkscape:connector-curvature="0" />
    </clipPath>
    <clipPath
       id="clipPath28961">
      <path
         id="path28963"
         d="M 0,841 595,841 595,0 0,0 0,841 Z"
         inkscape:connector-curvature="0" />
    </clipPath>
    <clipPath
       id="clipPath28967">
      <path
         id="path28969"
         d="m 0.36,841.68 595.44,0 L 595.8,0 0.36,0 l 0,841.68 z"
         inkscape:connector-curvature="0" />
    </clipPath>
    <clipPath
       id="clipPath29133">
      <path
         id="path29135"
         d="m 229.606,682.535 68.032,0 0,-70 -68.032,0 0,70 z"
         inkscape:connector-curvature="0" />
    </clipPath>
    <clipPath
       id="clipPath29139">
      <path
         id="path29141"
         d="M 0,841 595,841 595,0 0,0 0,841 Z"
         inkscape:connector-curvature="0" />
    </clipPath>
    <clipPath
       id="clipPath29145">
      <path
         id="path29147"
         d="m 0.36,841.68 595.44,0 L 595.8,0 0.36,0 l 0,841.68 z"
         inkscape:connector-curvature="0" />
    </clipPath>
    <clipPath
       id="clipPath29207">
      <path
         id="path29209"
         d="m 314.646,682.535 68.031,0 0,-70 -68.031,0 0,70 z"
         inkscape:connector-curvature="0" />
    </clipPath>
    <clipPath
       id="clipPath29213">
      <path
         id="path29215"
         d="M 0,841 595,841 595,0 0,0 0,841 Z"
         inkscape:connector-curvature="0" />
    </clipPath>
    <clipPath
       id="clipPath29219">
      <path
         id="path29221"
         d="m 0.36,841.68 595.44,0 L 595.8,0 0.36,0 l 0,841.68 z"
         inkscape:connector-curvature="0" />
    </clipPath>
    <clipPath
       id="clipPath29253">
      <path
         id="path29255"
         d="m 458.677,531.224 c 0,-0.192 0,-0.384 0,-0.576 -0.012,0 -0.024,0 -0.036,0 0,-0.132 0,-0.264 0,-0.396 -0.012,0 -0.024,0 -0.036,0 0,-0.12 0,-0.24 0,-0.36 -0.012,0 -0.024,0 -0.036,0 0,-0.108 0,-0.216 0,-0.324 -0.012,0 -0.024,0 -0.036,0 0,-0.096 0,-0.192 0,-0.288 -0.103,-0.353 -0.112,-0.806 -0.216,-1.152 0,-0.072 0,-0.144 0,-0.216 -0.117,-0.381 -0.168,-0.852 -0.288,-1.224 0,-0.06 0,-0.12 0,-0.18 -0.102,-0.312 -0.182,-0.698 -0.288,-1.008 -0.012,-0.096 -0.024,-0.192 -0.036,-0.288 -0.188,-0.521 -0.339,-1.116 -0.54,-1.62 -0.06,-0.216 -0.12,-0.432 -0.18,-0.648 -0.012,0 -0.024,0 -0.036,0 0,-0.024 0,-0.048 0,-0.072 -0.012,0 -0.024,0 -0.036,0 -0.012,-0.072 -0.024,-0.144 -0.036,-0.216 -0.012,0 -0.024,0 -0.036,0 0,-0.024 0,-0.048 0,-0.072 -0.012,0 -0.024,0 -0.036,0 -0.012,-0.072 -0.024,-0.144 -0.036,-0.216 -0.012,0 -0.024,0 -0.036,0 0,-0.024 0,-0.048 0,-0.072 -0.012,0 -0.024,0 -0.036,0 0,-0.036 0,-0.072 0,-0.108 -0.012,0 -0.024,0 -0.036,0 0,-0.024 0,-0.048 0,-0.072 -0.012,0 -0.024,0 -0.036,0 -0.012,-0.06 -0.024,-0.12 -0.036,-0.18 -0.012,0 -0.024,0 -0.036,0 0,-0.036 0,-0.072 0,-0.108 -0.012,0 -0.024,0 -0.036,0 0,-0.024 0,-0.048 0,-0.072 -0.012,0 -0.024,0 -0.036,0 0,-0.036 0,-0.072 0,-0.108 -0.012,0 -0.024,0 -0.036,0 -0.012,-0.048 -0.024,-0.096 -0.036,-0.144 -0.012,0 -0.024,0 -0.036,0 0,-0.036 0,-0.072 0,-0.108 -0.012,0 -0.024,0 -0.036,0 -0.012,-0.048 -0.024,-0.096 -0.036,-0.144 -0.012,0 -0.024,0 -0.036,0 0,-0.036 0,-0.072 0,-0.108 -0.012,0 -0.024,0 -0.036,0 0,-0.024 0,-0.048 0,-0.072 -0.012,0 -0.024,0 -0.036,0 0,-0.024 0,-0.048 0,-0.072 -0.012,0 -0.024,0 -0.036,0 -0.024,-0.072 -0.048,-0.144 -0.072,-0.216 -0.012,0 -0.024,0 -0.036,0 0,-0.036 0,-0.072 0,-0.108 -0.012,0 -0.024,0 -0.036,0 -0.024,-0.072 -0.048,-0.144 -0.072,-0.216 -0.012,0 -0.024,0 -0.036,0 0,-0.024 0,-0.048 0,-0.072 -0.012,0 -0.024,0 -0.036,0 0,-0.024 0,-0.048 0,-0.072 -0.012,0 -0.024,0 -0.036,0 0,-0.024 0,-0.048 0,-0.072 -0.012,0 -0.024,0 -0.036,0 0,-0.024 0,-0.048 0,-0.072 -0.012,0 -0.024,0 -0.036,0 -0.012,-0.06 -0.024,-0.12 -0.036,-0.18 -0.024,-0.012 -0.048,-0.024 -0.072,-0.036 0,-0.024 0,-0.048 0,-0.072 l -0.072,-0.072 c 0,-0.024 0,-0.048 0,-0.072 -0.012,0 -0.024,0 -0.036,0 0,-0.024 0,-0.048 0,-0.072 -0.012,0 -0.024,0 -0.036,0 0,-0.024 0,-0.048 0,-0.072 -0.012,0 -0.024,0 -0.036,0 0,-0.024 0,-0.048 0,-0.072 -0.012,0 -0.024,0 -0.036,0 0,-0.024 0,-0.048 0,-0.072 l -0.072,-0.072 c 0,-0.024 0,-0.048 0,-0.072 -0.024,-0.012 -0.048,-0.024 -0.072,-0.036 0,-0.024 0,-0.048 0,-0.072 l -0.072,-0.072 c 0,-0.024 0,-0.048 0,-0.072 -0.012,0 -0.024,0 -0.036,0 0,-0.024 0,-0.048 0,-0.072 -0.012,0 -0.024,0 -0.036,0 0,-0.024 0,-0.048 0,-0.072 -0.024,-0.012 -0.048,-0.024 -0.072,-0.036 -0.024,-0.072 -0.048,-0.144 -0.072,-0.216 -0.024,-0.012 -0.048,-0.024 -0.072,-0.036 -0.012,-0.048 -0.024,-0.096 -0.036,-0.144 -0.024,-0.012 -0.048,-0.024 -0.072,-0.036 -0.024,-0.072 -0.048,-0.144 -0.072,-0.216 -0.024,-0.012 -0.048,-0.024 -0.072,-0.036 0,-0.024 0,-0.048 0,-0.072 -0.024,-0.012 -0.048,-0.024 -0.072,-0.036 -0.012,-0.048 -0.024,-0.096 -0.036,-0.144 -0.012,0 -0.024,0 -0.036,0 -0.012,-0.036 -0.024,-0.072 -0.036,-0.108 -0.024,-0.012 -0.048,-0.024 -0.072,-0.036 -0.012,-0.048 -0.024,-0.096 -0.036,-0.144 -0.024,-0.012 -0.048,-0.024 -0.072,-0.036 0,-0.024 0,-0.048 0,-0.072 -0.024,-0.012 -0.048,-0.024 -0.072,-0.036 0,-0.024 0,-0.048 0,-0.072 -0.012,0 -0.024,0 -0.036,0 -0.012,-0.036 -0.024,-0.072 -0.036,-0.108 -0.024,-0.012 -0.048,-0.024 -0.072,-0.036 0,-0.024 0,-0.048 0,-0.072 -0.012,0 -0.024,0 -0.036,0 -0.012,-0.036 -0.024,-0.072 -0.036,-0.108 -0.024,-0.012 -0.048,-0.024 -0.072,-0.036 0,-0.024 0,-0.048 0,-0.072 -0.036,-0.024 -0.072,-0.048 -0.108,-0.072 0,-0.024 0,-0.048 0,-0.072 -0.024,-0.012 -0.048,-0.024 -0.072,-0.036 0,-0.024 0,-0.048 0,-0.072 -0.036,-0.024 -0.072,-0.048 -0.108,-0.072 0,-0.024 0,-0.048 0,-0.072 -0.024,-0.012 -0.048,-0.024 -0.072,-0.036 0,-0.024 0,-0.048 0,-0.072 -0.036,-0.024 -0.072,-0.048 -0.108,-0.072 0,-0.024 0,-0.048 0,-0.072 -0.036,-0.024 -0.072,-0.048 -0.108,-0.072 0,-0.024 0,-0.048 0,-0.072 -0.048,-0.036 -0.096,-0.072 -0.144,-0.108 0,-0.024 0,-0.048 0,-0.072 -0.048,-0.036 -0.096,-0.072 -0.144,-0.108 -0.012,-0.036 -0.024,-0.072 -0.036,-0.108 -0.024,-0.012 -0.048,-0.024 -0.072,-0.036 0,-0.024 0,-0.048 0,-0.072 -0.06,-0.048 -0.12,-0.096 -0.18,-0.144 0,-0.024 0,-0.048 0,-0.072 -0.06,-0.048 -0.12,-0.096 -0.18,-0.144 0,-0.024 0,-0.048 0,-0.072 -0.072,-0.06 -0.144,-0.12 -0.216,-0.18 0,-0.024 0,-0.048 0,-0.072 -0.096,-0.084 -0.192,-0.168 -0.288,-0.252 -0.012,-0.036 -0.024,-0.072 -0.036,-0.108 -0.168,-0.156 -0.336,-0.312 -0.504,-0.468 -0.216,-0.228 -0.432,-0.456 -0.648,-0.684 -0.024,0 -0.048,0 -0.072,0 -0.096,-0.108 -0.192,-0.216 -0.288,-0.324 -0.024,0 -0.048,0 -0.072,0 -0.012,-0.024 -0.024,-0.048 -0.036,-0.072 -0.012,0 -0.024,0 -0.036,0 -0.036,-0.048 -0.072,-0.096 -0.108,-0.144 -0.024,0 -0.048,0 -0.072,0 -0.06,-0.072 -0.12,-0.144 -0.18,-0.216 -0.024,0 -0.048,0 -0.072,0 -0.012,-0.024 -0.024,-0.048 -0.036,-0.072 -0.012,0 -0.024,0 -0.036,0 -0.024,-0.036 -0.048,-0.072 -0.072,-0.108 -0.024,0 -0.048,0 -0.072,0 -0.048,-0.06 -0.096,-0.12 -0.144,-0.18 -0.024,0 -0.048,0 -0.072,0 -0.036,-0.048 -0.072,-0.096 -0.108,-0.144 -0.024,0 -0.048,0 -0.072,0 -0.036,-0.048 -0.072,-0.096 -0.108,-0.144 -0.024,0 -0.048,0 -0.072,0 -0.036,-0.048 -0.072,-0.096 -0.108,-0.144 -0.024,0 -0.048,0 -0.072,0 -0.024,-0.036 -0.048,-0.072 -0.072,-0.108 -0.024,0 -0.048,0 -0.072,0 -0.036,-0.048 -0.072,-0.096 -0.108,-0.144 -0.024,0 -0.048,0 -0.072,0 -0.024,-0.036 -0.048,-0.072 -0.072,-0.108 -0.024,0 -0.048,0 -0.072,0 -0.024,-0.036 -0.048,-0.072 -0.072,-0.108 -0.024,0 -0.048,0 -0.072,0 -0.024,-0.036 -0.048,-0.072 -0.072,-0.108 -0.024,0 -0.048,0 -0.072,0 -0.012,-0.024 -0.024,-0.048 -0.036,-0.072 -0.024,0 -0.048,0 -0.072,0 -0.012,-0.024 -0.024,-0.048 -0.036,-0.072 -0.036,-0.012 -0.072,-0.024 -0.108,-0.036 -0.024,-0.036 -0.048,-0.072 -0.072,-0.108 -0.024,0 -0.048,0 -0.072,0 0,-0.012 0,-0.024 0,-0.036 -0.036,-0.012 -0.072,-0.024 -0.108,-0.036 -0.012,-0.024 -0.024,-0.048 -0.036,-0.072 -0.024,0 -0.048,0 -0.072,0 -0.024,-0.036 -0.048,-0.072 -0.072,-0.108 -0.024,0 -0.048,0 -0.072,0 -0.012,-0.024 -0.024,-0.048 -0.036,-0.072 -0.036,-0.012 -0.072,-0.024 -0.108,-0.036 0,-0.012 0,-0.024 0,-0.036 -0.024,0 -0.048,0 -0.072,0 -0.012,-0.024 -0.024,-0.048 -0.036,-0.072 -0.024,0 -0.048,0 -0.072,0 -0.012,-0.024 -0.024,-0.048 -0.036,-0.072 -0.024,0 -0.048,0 -0.072,0 -0.012,-0.024 -0.024,-0.048 -0.036,-0.072 -0.024,0 -0.048,0 -0.072,0 -0.012,-0.024 -0.024,-0.048 -0.036,-0.072 -0.024,0 -0.048,0 -0.072,0 -0.012,-0.024 -0.024,-0.048 -0.036,-0.072 -0.024,0 -0.048,0 -0.072,0 -0.012,-0.024 -0.024,-0.048 -0.036,-0.072 -0.024,0 -0.048,0 -0.072,0 -0.012,-0.024 -0.024,-0.048 -0.036,-0.072 -0.048,-0.012 -0.096,-0.024 -0.144,-0.036 -0.012,-0.024 -0.024,-0.048 -0.036,-0.072 -0.024,0 -0.048,0 -0.072,0 -0.012,-0.024 -0.024,-0.048 -0.036,-0.072 -0.048,-0.012 -0.096,-0.024 -0.144,-0.036 -0.012,-0.024 -0.024,-0.048 -0.036,-0.072 -0.048,-0.012 -0.096,-0.024 -0.144,-0.036 -0.012,-0.024 -0.024,-0.048 -0.036,-0.072 -0.048,-0.012 -0.096,-0.024 -0.144,-0.036 -0.012,-0.024 -0.024,-0.048 -0.036,-0.072 -0.048,-0.012 -0.096,-0.024 -0.144,-0.036 -0.012,-0.024 -0.024,-0.048 -0.036,-0.072 -0.072,-0.024 -0.144,-0.048 -0.216,-0.072 -0.012,-0.024 -0.024,-0.048 -0.036,-0.072 -0.024,0 -0.048,0 -0.072,0 0,-0.012 0,-0.024 0,-0.036 -0.024,0 -0.048,0 -0.072,0 l -0.072,-0.072 c -0.024,0 -0.048,0 -0.072,0 -0.012,-0.024 -0.024,-0.048 -0.036,-0.072 -0.192,-0.084 -0.384,-0.168 -0.576,-0.252 -0.012,-0.024 -0.024,-0.048 -0.036,-0.072 -0.072,-0.024 -0.144,-0.048 -0.216,-0.072 0,-0.012 0,-0.024 0,-0.036 -0.024,0 -0.048,0 -0.072,0 0,-0.012 0,-0.024 0,-0.036 -0.072,-0.024 -0.144,-0.048 -0.216,-0.072 0,-0.012 0,-0.024 0,-0.036 -0.036,0 -0.072,0 -0.108,0 0,-0.012 0,-0.024 0,-0.036 -0.024,0 -0.048,0 -0.072,0 0,-0.012 0,-0.024 0,-0.036 -0.024,0 -0.048,0 -0.072,0 0,-0.012 0,-0.024 0,-0.036 -0.024,0 -0.048,0 -0.072,0 0,-0.012 0,-0.024 0,-0.036 -0.072,-0.024 -0.144,-0.048 -0.216,-0.072 0,-0.012 0,-0.024 0,-0.036 -0.108,-0.036 -0.216,-0.072 -0.324,-0.108 0,-0.012 0,-0.024 0,-0.036 -0.024,0 -0.048,0 -0.072,0 0,-0.012 0,-0.024 0,-0.036 -0.036,0 -0.072,0 -0.108,0 0,-0.012 0,-0.024 0,-0.036 -0.024,0 -0.048,0 -0.072,0 0,-0.012 0,-0.024 0,-0.036 -0.036,0 -0.072,0 -0.108,0 0,-0.012 0,-0.024 0,-0.036 -0.048,-0.012 -0.096,-0.024 -0.144,-0.036 0,-0.012 0,-0.024 0,-0.036 -0.036,0 -0.072,0 -0.108,0 0,-0.012 0,-0.024 0,-0.036 -0.024,0 -0.048,0 -0.072,0 0,-0.012 0,-0.024 0,-0.036 -0.036,0 -0.072,0 -0.108,0 0,-0.012 0,-0.024 0,-0.036 -0.024,0 -0.048,0 -0.072,0 0,-0.012 0,-0.024 0,-0.036 -0.06,-0.012 -0.12,-0.024 -0.18,-0.036 0,-0.012 0,-0.024 0,-0.036 -0.036,0 -0.072,0 -0.108,0 0,-0.012 0,-0.024 0,-0.036 -0.024,0 -0.048,0 -0.072,0 0,-0.012 0,-0.024 0,-0.036 -0.108,-0.024 -0.216,-0.048 -0.324,-0.072 0,-0.012 0,-0.024 0,-0.036 -0.024,0 -0.048,0 -0.072,0 0,-0.012 0,-0.024 0,-0.036 -0.036,0 -0.072,0 -0.108,0 0,-0.012 0,-0.024 0,-0.036 -0.036,0 -0.072,0 -0.108,0 0,-0.012 0,-0.024 0,-0.036 -0.036,0 -0.072,0 -0.108,0 0,-0.012 0,-0.024 0,-0.036 -0.036,0 -0.072,0 -0.108,0 0,-0.012 0,-0.024 0,-0.036 -0.036,0 -0.072,0 -0.108,0 -0.589,-0.234 -1.28,-0.374 -1.908,-0.576 -0.06,0 -0.12,0 -0.18,0 0,-0.012 0,-0.024 0,-0.036 -0.048,0 -0.096,0 -0.144,0 0,-0.012 0,-0.024 0,-0.036 -0.048,0 -0.096,0 -0.144,0 0,-0.012 0,-0.024 0,-0.036 -0.06,0 -0.12,0 -0.18,0 0,-0.012 0,-0.024 0,-0.036 -0.06,0 -0.12,0 -0.18,0 0,-0.012 0,-0.024 0,-0.036 -0.12,-0.012 -0.24,-0.024 -0.36,-0.036 0,-0.012 0,-0.024 0,-0.036 -0.072,0 -0.144,0 -0.216,0 -0.365,-0.109 -0.848,-0.108 -1.224,-0.216 -0.108,0 -0.216,0 -0.324,0 0,-0.012 0,-0.024 0,-0.036 -0.108,0 -0.216,0 -0.324,0 0,-0.012 0,-0.024 0,-0.036 -0.132,0 -0.264,0 -0.396,0 -0.05,-0.008 0.013,-0.022 -0.036,-0.036 -0.156,0 -0.312,0 -0.468,0 0,-0.012 0,-0.024 0,-0.036 -0.217,-0.061 -0.58,0.024 -0.792,-0.036 -0.324,0 -0.648,0 -0.972,0 -0.331,0 -0.774,-0.04 -1.044,0.036 -0.218,0.062 -0.56,-0.019 -0.756,0.036 -0.18,0 -0.36,0 -0.54,0 0,0.012 0,0.024 0,0.036 -0.24,0.012 -0.48,0.024 -0.72,0.036 -0.66,0.096 -1.32,0.192 -1.98,0.288 -0.636,0.144 -1.272,0.288 -1.908,0.432 0,0.012 0,0.024 0,0.036 -0.084,0.012 -0.168,0.024 -0.252,0.036 0,0.012 0,0.024 0,0.036 -0.084,0.012 -0.168,0.024 -0.252,0.036 0,0.012 0,0.024 0,0.036 -0.084,0.012 -0.168,0.024 -0.252,0.036 0,0.012 0,0.024 0,0.036 -0.036,0 -0.072,0 -0.108,0 0,0.012 0,0.024 0,0.036 -0.036,0 -0.072,0 -0.108,0 0,0.012 0,0.024 0,0.036 -0.036,0 -0.072,0 -0.108,0 0,0.012 0,0.024 0,0.036 -0.048,0 -0.096,0 -0.144,0 0,0.012 0,0.024 0,0.036 -0.036,0 -0.072,0 -0.108,0 0,0.012 0,0.024 0,0.036 -0.036,0 -0.072,0 -0.108,0 0,0.012 0,0.024 0,0.036 -0.036,0 -0.072,0 -0.108,0 0,0.012 0,0.024 0,0.036 -0.036,0 -0.072,0 -0.108,0 0,0.012 0,0.024 0,0.036 -0.024,0 -0.048,0 -0.072,0 0,0.012 0,0.024 0,0.036 -0.036,0 -0.072,0 -0.108,0 0,0.012 0,0.024 0,0.036 -0.036,0 -0.072,0 -0.108,0 0,0.012 0,0.024 0,0.036 -0.036,0 -0.072,0 -0.108,0 0,0.012 0,0.024 0,0.036 -0.036,0 -0.072,0 -0.108,0 0,0.012 0,0.024 0,0.036 -0.036,0 -0.072,0 -0.108,0 0,0.012 0,0.024 0,0.036 -0.024,0 -0.048,0 -0.072,0 0,0.012 0,0.024 0,0.036 -0.036,0 -0.072,0 -0.108,0 0,0.012 0,0.024 0,0.036 -0.024,0 -0.048,0 -0.072,0 0,0.012 0,0.024 0,0.036 -0.072,0.012 -0.144,0.024 -0.216,0.036 0,0.012 0,0.024 0,0.036 -0.024,0 -0.048,0 -0.072,0 0,0.012 0,0.024 0,0.036 -0.036,0 -0.072,0 -0.108,0 0,0.012 0,0.024 0,0.036 -0.048,0.012 -0.096,0.024 -0.144,0.036 0,0.012 0,0.024 0,0.036 -0.036,0 -0.072,0 -0.108,0 0,0.012 0,0.024 0,0.036 -0.024,0 -0.048,0 -0.072,0 0,0.012 0,0.024 0,0.036 -0.036,0 -0.072,0 -0.108,0 0,0.012 0,0.024 0,0.036 -0.048,0.012 -0.096,0.024 -0.144,0.036 0,0.012 0,0.024 0,0.036 -0.036,0 -0.072,0 -0.108,0 0,0.012 0,0.024 0,0.036 -0.024,0 -0.048,0 -0.072,0 0,0.012 0,0.024 0,0.036 -0.024,0 -0.048,0 -0.072,0 0,0.012 0,0.024 0,0.036 -0.024,0 -0.048,0 -0.072,0 0,0.012 0,0.024 0,0.036 -0.036,0 -0.072,0 -0.108,0 0,0.012 0,0.024 0,0.036 -0.024,0 -0.048,0 -0.072,0 0,0.012 0,0.024 0,0.036 -0.072,0.024 -0.144,0.048 -0.216,0.072 0,0.012 0,0.024 0,0.036 -0.036,0 -0.072,0 -0.108,0 0,0.012 0,0.024 0,0.036 -0.072,0.024 -0.144,0.048 -0.216,0.072 0,0.012 0,0.024 0,0.036 -0.024,0 -0.048,0 -0.072,0 0,0.012 0,0.024 0,0.036 -0.024,0 -0.048,0 -0.072,0 0,0.012 0,0.024 0,0.036 -0.024,0 -0.048,0 -0.072,0 0,0.012 0,0.024 0,0.036 -0.024,0 -0.048,0 -0.072,0 0,0.012 0,0.024 0,0.036 -0.024,0 -0.048,0 -0.072,0 0,0.012 0,0.024 0,0.036 -0.024,0 -0.048,0 -0.072,0 l -0.072,0.072 c -0.024,0 -0.048,0 -0.072,0 -0.012,0.024 -0.024,0.048 -0.036,0.072 -0.024,0 -0.048,0 -0.072,0 l -0.072,0.072 c -0.024,0 -0.048,0 -0.072,0 0,0.012 0,0.024 0,0.036 -0.024,0 -0.048,0 -0.072,0 0,0.012 0,0.024 0,0.036 -0.024,0 -0.048,0 -0.072,0 0,0.012 0,0.024 0,0.036 -0.048,0.012 -0.096,0.024 -0.144,0.036 -0.012,0.024 -0.024,0.048 -0.036,0.072 -0.072,0.024 -0.144,0.048 -0.216,0.072 -0.012,0.024 -0.024,0.048 -0.036,0.072 -0.072,0.024 -0.144,0.048 -0.216,0.072 -0.012,0.024 -0.024,0.048 -0.036,0.072 -0.072,0.024 -0.144,0.048 -0.216,0.072 -0.012,0.024 -0.024,0.048 -0.036,0.072 -0.024,0 -0.048,0 -0.072,0 0,0.012 0,0.024 0,0.036 -0.024,0 -0.048,0 -0.072,0 0,0.012 0,0.024 0,0.036 -0.036,0.012 -0.072,0.024 -0.108,0.036 -0.012,0.024 -0.024,0.048 -0.036,0.072 -0.048,0.012 -0.096,0.024 -0.144,0.036 0,0.012 0,0.024 0,0.036 -0.036,0.012 -0.072,0.024 -0.108,0.036 -0.012,0.024 -0.024,0.048 -0.036,0.072 -0.048,0.012 -0.096,0.024 -0.144,0.036 -0.012,0.024 -0.024,0.048 -0.036,0.072 -0.024,0 -0.048,0 -0.072,0 0,0.012 0,0.024 0,0.036 -0.036,0.012 -0.072,0.024 -0.108,0.036 -0.012,0.024 -0.024,0.048 -0.036,0.072 -0.024,0 -0.048,0 -0.072,0 -0.012,0.024 -0.024,0.048 -0.036,0.072 -0.024,0 -0.048,0 -0.072,0 -0.012,0.024 -0.024,0.048 -0.036,0.072 -0.024,0 -0.048,0 -0.072,0 -0.012,0.024 -0.024,0.048 -0.036,0.072 -0.024,0 -0.048,0 -0.072,0 0,0.012 0,0.024 0,0.036 -0.036,0.012 -0.072,0.024 -0.108,0.036 -0.012,0.024 -0.024,0.048 -0.036,0.072 -0.024,0 -0.048,0 -0.072,0 -0.024,0.036 -0.048,0.072 -0.072,0.108 -0.024,0 -0.048,0 -0.072,0 -0.012,0.024 -0.024,0.048 -0.036,0.072 -0.024,0 -0.048,0 -0.072,0 -0.024,0.036 -0.048,0.072 -0.072,0.108 -0.024,0 -0.048,0 -0.072,0 -0.012,0.024 -0.024,0.048 -0.036,0.072 -0.024,0 -0.048,0 -0.072,0 -0.024,0.036 -0.048,0.072 -0.072,0.108 -0.024,0 -0.048,0 -0.072,0 -0.024,0.036 -0.048,0.072 -0.072,0.108 -0.024,0 -0.048,0 -0.072,0 -0.024,0.036 -0.048,0.072 -0.072,0.108 -0.024,0 -0.048,0 -0.072,0 -0.024,0.036 -0.048,0.072 -0.072,0.108 -0.024,0 -0.048,0 -0.072,0 -0.036,0.048 -0.072,0.096 -0.108,0.144 -0.024,0 -0.048,0 -0.072,0 -0.024,0.036 -0.048,0.072 -0.072,0.108 -0.024,0 -0.048,0 -0.072,0 -0.036,0.048 -0.072,0.096 -0.108,0.144 -0.024,0 -0.048,0 -0.072,0 -0.036,0.048 -0.072,0.096 -0.108,0.144 -0.024,0 -0.048,0 -0.072,0 -0.048,0.06 -0.096,0.12 -0.144,0.18 -0.024,0 -0.048,0 -0.072,0 -0.06,0.072 -0.12,0.144 -0.18,0.216 -0.024,0 -0.048,0 -0.072,0 -0.06,0.072 -0.12,0.144 -0.18,0.216 -0.024,0 -0.048,0 -0.072,0 -0.096,0.108 -0.192,0.216 -0.288,0.324 -0.024,0 -0.048,0 -0.072,0 -0.144,0.156 -0.288,0.312 -0.432,0.468 -0.024,0 -0.048,0 -0.072,0 -0.108,0.12 -0.216,0.24 -0.324,0.36 -0.263,0.263 -0.534,0.485 -0.756,0.792 -0.156,0.144 -0.312,0.288 -0.468,0.432 0,0.024 0,0.048 0,0.072 -0.096,0.084 -0.192,0.168 -0.288,0.252 0,0.024 0,0.048 0,0.072 -0.084,0.072 -0.168,0.144 -0.252,0.216 0,0.024 0,0.048 0,0.072 -0.084,0.072 -0.168,0.144 -0.252,0.216 0,0.024 0,0.048 0,0.072 -0.06,0.048 -0.12,0.096 -0.18,0.144 0,0.024 0,0.048 0,0.072 -0.06,0.048 -0.12,0.096 -0.18,0.144 0,0.024 0,0.048 0,0.072 -0.024,0.012 -0.048,0.024 -0.072,0.036 -0.012,0.036 -0.024,0.072 -0.036,0.108 -0.048,0.036 -0.096,0.072 -0.144,0.108 0,0.024 0,0.048 0,0.072 -0.036,0.024 -0.072,0.048 -0.108,0.072 0,0.024 0,0.048 0,0.072 -0.036,0.024 -0.072,0.048 -0.108,0.072 0,0.024 0,0.048 0,0.072 -0.036,0.024 -0.072,0.048 -0.108,0.072 -0.012,0.036 -0.024,0.072 -0.036,0.108 -0.024,0.012 -0.048,0.024 -0.072,0.036 0,0.024 0,0.048 0,0.072 -0.024,0.012 -0.048,0.024 -0.072,0.036 0,0.024 0,0.048 0,0.072 -0.036,0.024 -0.072,0.048 -0.108,0.072 0,0.024 0,0.048 0,0.072 -0.024,0.012 -0.048,0.024 -0.072,0.036 0,0.024 0,0.048 0,0.072 -0.012,0 -0.024,0 -0.036,0 -0.012,0.036 -0.024,0.072 -0.036,0.108 -0.024,0.012 -0.048,0.024 -0.072,0.036 0,0.024 0,0.048 0,0.072 -0.036,0.024 -0.072,0.048 -0.108,0.072 0,0.024 0,0.048 0,0.072 -0.024,0.012 -0.048,0.024 -0.072,0.036 -0.012,0.048 -0.024,0.096 -0.036,0.144 -0.024,0.012 -0.048,0.024 -0.072,0.036 0,0.024 0,0.048 0,0.072 -0.024,0.012 -0.048,0.024 -0.072,0.036 0,0.024 0,0.048 0,0.072 -0.024,0.012 -0.048,0.024 -0.072,0.036 0,0.024 0,0.048 0,0.072 -0.024,0.012 -0.048,0.024 -0.072,0.036 -0.012,0.048 -0.024,0.096 -0.036,0.144 -0.024,0.012 -0.048,0.024 -0.072,0.036 -0.012,0.048 -0.024,0.096 -0.036,0.144 -0.024,0.012 -0.048,0.024 -0.072,0.036 -0.012,0.048 -0.024,0.096 -0.036,0.144 -0.024,0.012 -0.048,0.024 -0.072,0.036 -0.024,0.072 -0.048,0.144 -0.072,0.216 -0.024,0.012 -0.048,0.024 -0.072,0.036 -0.024,0.072 -0.048,0.144 -0.072,0.216 -0.024,0.012 -0.048,0.024 -0.072,0.036 0,0.024 0,0.048 0,0.072 l -0.072,0.072 c 0,0.024 0,0.048 0,0.072 -0.012,0 -0.024,0 -0.036,0 0,0.024 0,0.048 0,0.072 -0.012,0 -0.024,0 -0.036,0 0,0.024 0,0.048 0,0.072 -0.012,0 -0.024,0 -0.036,0 -0.012,0.048 -0.024,0.096 -0.036,0.144 -0.024,0.012 -0.048,0.024 -0.072,0.036 0,0.024 0,0.048 0,0.072 l -0.072,0.072 c 0,0.024 0,0.048 0,0.072 -0.012,0 -0.024,0 -0.036,0 0,0.024 0,0.048 0,0.072 -0.012,0 -0.024,0 -0.036,0 0,0.024 0,0.048 0,0.072 -0.012,0 -0.024,0 -0.036,0 0,0.024 0,0.048 0,0.072 -0.012,0 -0.024,0 -0.036,0 -0.024,0.072 -0.048,0.144 -0.072,0.216 -0.012,0 -0.024,0 -0.036,0 0,0.036 0,0.072 0,0.108 -0.012,0 -0.024,0 -0.036,0 0,0.024 0,0.048 0,0.072 -0.012,0 -0.024,0 -0.036,0 0,0.024 0,0.048 0,0.072 -0.012,0 -0.024,0 -0.036,0 -0.024,0.072 -0.048,0.144 -0.072,0.216 -0.012,0 -0.024,0 -0.036,0 0,0.036 0,0.072 0,0.108 -0.012,0 -0.024,0 -0.036,0 0,0.024 0,0.048 0,0.072 -0.012,0 -0.024,0 -0.036,0 -0.012,0.048 -0.024,0.096 -0.036,0.144 -0.012,0 -0.024,0 -0.036,0 0,0.036 0,0.072 0,0.108 -0.012,0 -0.024,0 -0.036,0 -0.012,0.048 -0.024,0.096 -0.036,0.144 -0.012,0 -0.024,0 -0.036,0 0,0.036 0,0.072 0,0.108 -0.012,0 -0.024,0 -0.036,0 0,0.024 0,0.048 0,0.072 -0.012,0 -0.024,0 -0.036,0 0,0.036 0,0.072 0,0.108 -0.012,0 -0.024,0 -0.036,0 0,0.024 0,0.048 0,0.072 -0.012,0 -0.024,0 -0.036,0 0,0.036 0,0.072 0,0.108 -0.012,0 -0.024,0 -0.036,0 0,0.024 0,0.048 0,0.072 -0.012,0 -0.024,0 -0.036,0 -0.012,0.06 -0.024,0.12 -0.036,0.18 -0.012,0 -0.024,0 -0.036,0 -0.012,0.072 -0.024,0.144 -0.036,0.216 -0.012,0 -0.024,0 -0.036,0 0,0.024 0,0.048 0,0.072 -0.012,0 -0.024,0 -0.036,0 -0.024,0.108 -0.048,0.216 -0.072,0.324 -0.012,0 -0.024,0 -0.036,0 0,0.024 0,0.048 0,0.072 -0.012,0 -0.024,0 -0.036,0 -0.024,0.108 -0.048,0.216 -0.072,0.324 -0.012,0 -0.024,0 -0.036,0 0,0.036 0,0.072 0,0.108 -0.012,0 -0.024,0 -0.036,0 0,0.036 0,0.072 0,0.108 -0.012,0 -0.024,0 -0.036,0 0,0.036 0,0.072 0,0.108 -0.012,0 -0.024,0 -0.036,0 -0.024,0.12 -0.048,0.24 -0.072,0.36 -0.012,0 -0.024,0 -0.036,0 0,0.036 0,0.072 0,0.108 -0.012,0 -0.024,0 -0.036,0 0,0.048 0,0.096 0,0.144 -0.012,0 -0.024,0 -0.036,0 0,0.036 0,0.072 0,0.108 -0.012,0 -0.024,0 -0.036,0 -0.012,0.084 -0.024,0.168 -0.036,0.252 -0.012,0 -0.024,0 -0.036,0 -0.012,0.096 -0.024,0.192 -0.036,0.288 -0.012,0 -0.024,0 -0.036,0 -0.012,0.096 -0.024,0.192 -0.036,0.288 -0.172,0.505 -0.236,1.13 -0.396,1.656 0,0.072 0,0.144 0,0.216 -0.059,0.197 -0.086,0.483 -0.144,0.684 0,0.096 0,0.192 0,0.288 -0.012,0 -0.024,0 -0.036,0 0,0.084 0,0.168 0,0.252 -0.012,0 -0.024,0 -0.036,0 0,0.108 0,0.216 0,0.324 -0.012,0 -0.024,0 -0.036,0 0,0.12 0,0.24 0,0.36 -0.012,0 -0.024,0 -0.036,0 0,0.132 0,0.264 0,0.396 -0.012,0 -0.024,0 -0.036,0 -0.012,0.3 -0.024,0.6 -0.036,0.9 0,0.132 0,0.264 0,0.396 -0.076,0.273 -0.077,1.348 0,1.62 0,0.216 0,0.432 0,0.648 0.024,0.36 0.048,0.72 0.072,1.08 0.012,0 0.024,0 0.036,0 0,0.132 0,0.264 0,0.396 0.012,0 0.024,0 0.036,0 0,0.096 0,0.192 0,0.288 0.112,0.385 0.104,0.887 0.216,1.26 0.012,0.144 0.024,0.288 0.036,0.432 0.066,0.214 0.113,0.507 0.18,0.72 0,0.06 0,0.12 0,0.18 0.012,0 0.024,0 0.036,0 0.024,0.156 0.048,0.312 0.072,0.468 0.012,0 0.024,0 0.036,0 0,0.048 0,0.096 0,0.144 0.012,0 0.024,0 0.036,0 0,0.048 0,0.096 0,0.144 0.012,0 0.024,0 0.036,0 0,0.048 0,0.096 0,0.144 0.012,0 0.024,0 0.036,0 0,0.048 0,0.096 0,0.144 0.012,0 0.024,0 0.036,0 0,0.048 0,0.096 0,0.144 0.012,0 0.024,0 0.036,0 0,0.036 0,0.072 0,0.108 0.012,0 0.024,0 0.036,0 0.012,0.096 0.024,0.192 0.036,0.288 0.159,0.441 0.298,0.942 0.468,1.368 0,0.036 0,0.072 0,0.108 0.012,0 0.024,0 0.036,0 0,0.036 0,0.072 0,0.108 0.012,0 0.024,0 0.036,0 0,0.036 0,0.072 0,0.108 0.012,0 0.024,0 0.036,0 0,0.036 0,0.072 0,0.108 0.012,0 0.024,0 0.036,0 0,0.024 0,0.048 0,0.072 0.012,0 0.024,0 0.036,0 0.012,0.072 0.024,0.144 0.036,0.216 0.012,0 0.024,0 0.036,0 0,0.024 0,0.048 0,0.072 0.012,0 0.024,0 0.036,0 0.012,0.072 0.024,0.144 0.036,0.216 0.012,0 0.024,0 0.036,0 0,0.024 0,0.048 0,0.072 0.012,0 0.024,0 0.036,0 0,0.036 0,0.072 0,0.108 0.012,0 0.024,0 0.036,0 0,0.024 0,0.048 0,0.072 0.012,0 0.024,0 0.036,0 0.012,0.06 0.024,0.12 0.036,0.18 0.012,0 0.024,0 0.036,0 0,0.036 0,0.072 0,0.108 0.012,0 0.024,0 0.036,0 0,0.024 0,0.048 0,0.072 0.012,0 0.024,0 0.036,0 0,0.036 0,0.072 0,0.108 0.012,0 0.024,0 0.036,0 0.012,0.048 0.024,0.096 0.036,0.144 0.012,0 0.024,0 0.036,0 0,0.036 0,0.072 0,0.108 0.012,0 0.024,0 0.036,0 0,0.024 0,0.048 0,0.072 0.012,0 0.024,0 0.036,0 0.012,0.048 0.024,0.096 0.036,0.144 0.012,0 0.024,0 0.036,0 0,0.036 0,0.072 0,0.108 0.012,0 0.024,0 0.036,0 0,0.024 0,0.048 0,0.072 0.012,0 0.024,0 0.036,0 0,0.024 0,0.048 0,0.072 0.012,0 0.024,0 0.036,0 0,0.024 0,0.048 0,0.072 0.012,0 0.024,0 0.036,0 0,0.036 0,0.072 0,0.108 0.012,0 0.024,0 0.036,0 0,0.024 0,0.048 0,0.072 0.012,0 0.024,0 0.036,0 0.012,0.048 0.024,0.096 0.036,0.144 0.012,0 0.024,0 0.036,0 0.012,0.048 0.024,0.096 0.036,0.144 0.012,0 0.024,0 0.036,0 0.012,0.048 0.024,0.096 0.036,0.144 0.012,0 0.024,0 0.036,0 0,0.024 0,0.048 0,0.072 0.012,0 0.024,0 0.036,0 0,0.024 0,0.048 0,0.072 0.012,0 0.024,0 0.036,0 0,0.024 0,0.048 0,0.072 0.012,0 0.024,0 0.036,0 0,0.024 0,0.048 0,0.072 0.012,0 0.024,0 0.036,0 0,0.024 0,0.048 0,0.072 0.012,0 0.024,0 0.036,0 0,0.024 0,0.048 0,0.072 0.012,0 0.024,0 0.036,0 0,0.024 0,0.048 0,0.072 0.012,0 0.024,0 0.036,0 0,0.024 0,0.048 0,0.072 0.012,0 0.024,0 0.036,0 0,0.024 0,0.048 0,0.072 0.012,0 0.024,0 0.036,0 0,0.024 0,0.048 0,0.072 l 0.072,0.072 c 0,0.024 0,0.048 0,0.072 0.024,0.012 0.048,0.024 0.072,0.036 0.024,0.072 0.048,0.144 0.072,0.216 l 0.072,0.072 c 0,0.024 0,0.048 0,0.072 0.024,0.012 0.048,0.024 0.072,0.036 0.024,0.072 0.048,0.144 0.072,0.216 0.024,0.012 0.048,0.024 0.072,0.036 0.024,0.072 0.048,0.144 0.072,0.216 0.024,0.012 0.048,0.024 0.072,0.036 0.012,0.048 0.024,0.096 0.036,0.144 0.024,0.012 0.048,0.024 0.072,0.036 0,0.024 0,0.048 0,0.072 0.012,0 0.024,0 0.036,0 0,0.024 0,0.048 0,0.072 0.024,0.012 0.048,0.024 0.072,0.036 0,0.024 0,0.048 0,0.072 0.024,0.012 0.048,0.024 0.072,0.036 0.012,0.048 0.024,0.096 0.036,0.144 0.024,0.012 0.048,0.024 0.072,0.036 0,0.024 0,0.048 0,0.072 0.024,0.012 0.048,0.024 0.072,0.036 0,0.024 0,0.048 0,0.072 0.024,0.012 0.048,0.024 0.072,0.036 0.012,0.048 0.024,0.096 0.036,0.144 0.012,0 0.024,0 0.036,0 0.012,0.036 0.024,0.072 0.036,0.108 0.024,0.012 0.048,0.024 0.072,0.036 0,0.024 0,0.048 0,0.072 0.012,0 0.024,0 0.036,0 0.012,0.036 0.024,0.072 0.036,0.108 0.024,0.012 0.048,0.024 0.072,0.036 0,0.024 0,0.048 0,0.072 0.036,0.024 0.072,0.048 0.108,0.072 0,0.024 0,0.048 0,0.072 0.012,0 0.024,0 0.036,0 0.012,0.036 0.024,0.072 0.036,0.108 0.024,0.012 0.048,0.024 0.072,0.036 0,0.024 0,0.048 0,0.072 0.024,0.012 0.048,0.024 0.072,0.036 0.012,0.036 0.024,0.072 0.036,0.108 0.036,0.024 0.072,0.048 0.108,0.072 0,0.024 0,0.048 0,0.072 0.024,0.012 0.048,0.024 0.072,0.036 0,0.024 0,0.048 0,0.072 0.024,0.012 0.048,0.024 0.072,0.036 0.012,0.036 0.024,0.072 0.036,0.108 0.036,0.024 0.072,0.048 0.108,0.072 0,0.024 0,0.048 0,0.072 0.048,0.036 0.096,0.072 0.144,0.108 0,0.024 0,0.048 0,0.072 0.036,0.024 0.072,0.048 0.108,0.072 0,0.024 0,0.048 0,0.072 0.048,0.036 0.096,0.072 0.144,0.108 0,0.024 0,0.048 0,0.072 0.048,0.036 0.096,0.072 0.144,0.108 0,0.024 0,0.048 0,0.072 0.06,0.048 0.12,0.096 0.18,0.144 0,0.024 0,0.048 0,0.072 0.072,0.06 0.144,0.12 0.216,0.18 0,0.024 0,0.048 0,0.072 0.084,0.072 0.168,0.144 0.252,0.216 0,0.024 0,0.048 0,0.072 0.132,0.12 0.264,0.24 0.396,0.36 0,0.024 0,0.048 0,0.072 0.156,0.144 0.312,0.288 0.468,0.432 0.326,0.326 0.628,0.662 1.008,0.936 0.084,0.096 0.168,0.192 0.252,0.288 0.024,0 0.048,0 0.072,0 0.06,0.072 0.12,0.144 0.18,0.216 0.024,0 0.048,0 0.072,0 0.048,0.06 0.096,0.12 0.144,0.18 0.024,0 0.048,0 0.072,0 0.036,0.048 0.072,0.096 0.108,0.144 0.024,0 0.048,0 0.072,0 0.036,0.048 0.072,0.096 0.108,0.144 0.024,0 0.048,0 0.072,0 0.036,0.048 0.072,0.096 0.108,0.144 0.024,0 0.048,0 0.072,0 0.024,0.036 0.048,0.072 0.072,0.108 0.024,0 0.048,0 0.072,0 0.036,0.048 0.072,0.096 0.108,0.144 0.024,0 0.048,0 0.072,0 0.012,0.024 0.024,0.048 0.036,0.072 0.024,0 0.048,0 0.072,0 0.024,0.036 0.048,0.072 0.072,0.108 0.024,0 0.048,0 0.072,0 0.012,0.024 0.024,0.048 0.036,0.072 0.024,0 0.048,0 0.072,0 0.024,0.036 0.048,0.072 0.072,0.108 0.024,0 0.048,0 0.072,0 0.012,0.024 0.024,0.048 0.036,0.072 0.024,0 0.048,0 0.072,0 0.024,0.036 0.048,0.072 0.072,0.108 0.024,0 0.048,0 0.072,0 0.012,0.024 0.024,0.048 0.036,0.072 0.024,0 0.048,0 0.072,0 0.024,0.036 0.048,0.072 0.072,0.108 0.024,0 0.048,0 0.072,0 0.012,0.024 0.024,0.048 0.036,0.072 0.024,0 0.048,0 0.072,0 0.012,0.024 0.024,0.048 0.036,0.072 0.024,0 0.048,0 0.072,0 0.012,0.024 0.024,0.048 0.036,0.072 0.024,0 0.048,0 0.072,0 0.012,0.024 0.024,0.048 0.036,0.072 0.048,0.012 0.096,0.024 0.144,0.036 0.012,0.024 0.024,0.048 0.036,0.072 0.024,0 0.048,0 0.072,0 0.012,0.024 0.024,0.048 0.036,0.072 0.024,0 0.048,0 0.072,0 0.012,0.024 0.024,0.048 0.036,0.072 0.024,0 0.048,0 0.072,0 0,0.012 0,0.024 0,0.036 0.024,0 0.048,0 0.072,0 0.012,0.024 0.024,0.048 0.036,0.072 0.048,0.012 0.096,0.024 0.144,0.036 0.012,0.024 0.024,0.048 0.036,0.072 0.036,0.012 0.072,0.024 0.108,0.036 0,0.012 0,0.024 0,0.036 0.072,0.024 0.144,0.048 0.216,0.072 0.012,0.024 0.024,0.048 0.036,0.072 0.048,0.012 0.096,0.024 0.144,0.036 0.012,0.024 0.024,0.048 0.036,0.072 0.072,0.024 0.144,0.048 0.216,0.072 0.012,0.024 0.024,0.048 0.036,0.072 0.024,0 0.048,0 0.072,0 0,0.012 0,0.024 0,0.036 0.024,0 0.048,0 0.072,0 0,0.012 0,0.024 0,0.036 0.024,0 0.048,0 0.072,0 l 0.072,0.072 c 0.024,0 0.048,0 0.072,0 0.012,0.024 0.024,0.048 0.036,0.072 0.048,0.012 0.096,0.024 0.144,0.036 l 0.072,0.072 c 0.024,0 0.048,0 0.072,0 0,0.012 0,0.024 0,0.036 0.024,0 0.048,0 0.072,0 0,0.012 0,0.024 0,0.036 0.024,0 0.048,0 0.072,0 0,0.012 0,0.024 0,0.036 0.024,0 0.048,0 0.072,0 0,0.012 0,0.024 0,0.036 0.048,0.012 0.096,0.024 0.144,0.036 0,0.012 0,0.024 0,0.036 0.048,0.012 0.096,0.024 0.144,0.036 0,0.012 0,0.024 0,0.036 0.048,0.012 0.096,0.024 0.144,0.036 0,0.012 0,0.024 0,0.036 0.048,0.012 0.096,0.024 0.144,0.036 0,0.012 0,0.024 0,0.036 0.024,0 0.048,0 0.072,0 0,0.012 0,0.024 0,0.036 0.024,0 0.048,0 0.072,0 0,0.012 0,0.024 0,0.036 0.024,0 0.048,0 0.072,0 0,0.012 0,0.024 0,0.036 0.024,0 0.048,0 0.072,0 0,0.012 0,0.024 0,0.036 0.048,0.012 0.096,0.024 0.144,0.036 0,0.012 0,0.024 0,0.036 0.024,0 0.048,0 0.072,0 0,0.012 0,0.024 0,0.036 0.036,0 0.072,0 0.108,0 0,0.012 0,0.024 0,0.036 0.024,0 0.048,0 0.072,0 0,0.012 0,0.024 0,0.036 0.072,0.024 0.144,0.048 0.216,0.072 0,0.012 0,0.024 0,0.036 0.036,0 0.072,0 0.108,0 0,0.012 0,0.024 0,0.036 0.024,0 0.048,0 0.072,0 0,0.012 0,0.024 0,0.036 0.048,0.012 0.096,0.024 0.144,0.036 0,0.012 0,0.024 0,0.036 0.036,0 0.072,0 0.108,0 0,0.012 0,0.024 0,0.036 0.024,0 0.048,0 0.072,0 0,0.012 0,0.024 0,0.036 0.036,0 0.072,0 0.108,0 0,0.012 0,0.024 0,0.036 0.048,0.012 0.096,0.024 0.144,0.036 0,0.012 0,0.024 0,0.036 0.036,0 0.072,0 0.108,0 0,0.012 0,0.024 0,0.036 0.048,0.012 0.096,0.024 0.144,0.036 0,0.012 0,0.024 0,0.036 0.036,0 0.072,0 0.108,0 0,0.012 0,0.024 0,0.036 0.024,0 0.048,0 0.072,0 0,0.012 0,0.024 0,0.036 0.072,0.012 0.144,0.024 0.216,0.036 0,0.012 0,0.024 0,0.036 0.06,0.012 0.12,0.024 0.18,0.036 0,0.012 0,0.024 0,0.036 0.024,0 0.048,0 0.072,0 0,0.012 0,0.024 0,0.036 0.036,0 0.072,0 0.108,0 0,0.012 0,0.024 0,0.036 0.024,0 0.048,0 0.072,0 0,0.012 0,0.024 0,0.036 0.036,0 0.072,0 0.108,0 0,0.012 0,0.024 0,0.036 0.036,0 0.072,0 0.108,0 0,0.012 0,0.024 0,0.036 0.036,0 0.072,0 0.108,0 0,0.012 0,0.024 0,0.036 0.036,0 0.072,0 0.108,0 0,0.012 0,0.024 0,0.036 0.024,0 0.048,0 0.072,0 0,0.012 0,0.024 0,0.036 0.036,0 0.072,0 0.108,0 0,0.012 0,0.024 0,0.036 0.036,0 0.072,0 0.108,0 0,0.012 0,0.024 0,0.036 0.036,0 0.072,0 0.108,0 0,0.012 0,0.024 0,0.036 0.036,0 0.072,0 0.108,0 0,0.012 0,0.024 0,0.036 0.036,0 0.072,0 0.108,0 0,0.012 0,0.024 0,0.036 0.072,0.012 0.144,0.024 0.216,0.036 0,0.012 0,0.024 0,0.036 0.024,0 0.048,0 0.072,0 0,0.012 0,0.024 0,0.036 0.036,0 0.072,0 0.108,0 0,0.012 0,0.024 0,0.036 0.048,0 0.096,0 0.144,0 0.189,0.068 0.396,0.171 0.612,0.216 0.756,2.34 1.512,4.68 2.268,7.02 -0.036,0.024 -0.072,0.048 -0.108,0.072 0,0.012 0,0.024 0,0.036 -0.024,0 -0.048,0 -0.072,0 -0.024,0.036 -0.048,0.072 -0.072,0.108 -0.024,0 -0.048,0 -0.072,0 -0.012,0.024 -0.024,0.048 -0.036,0.072 -0.024,0 -0.048,0 -0.072,0 -0.012,0.024 -0.024,0.048 -0.036,0.072 -0.036,0.012 -0.072,0.024 -0.108,0.036 -0.024,0.036 -0.048,0.072 -0.072,0.108 -0.024,0 -0.048,0 -0.072,0 -0.024,0.036 -0.048,0.072 -0.072,0.108 -0.036,0.012 -0.072,0.024 -0.108,0.036 -0.012,0.024 -0.024,0.048 -0.036,0.072 -0.024,0 -0.048,0 -0.072,0 -0.012,0.024 -0.024,0.048 -0.036,0.072 -0.024,0 -0.048,0 -0.072,0 -0.012,0.024 -0.024,0.048 -0.036,0.072 -0.036,0.012 -0.072,0.024 -0.108,0.036 -0.024,0.036 -0.048,0.072 -0.072,0.108 -0.024,0 -0.048,0 -0.072,0 -0.024,0.036 -0.048,0.072 -0.072,0.108 -0.036,0.012 -0.072,0.024 -0.108,0.036 -0.012,0.024 -0.024,0.048 -0.036,0.072 -0.024,0 -0.048,0 -0.072,0 -0.012,0.024 -0.024,0.048 -0.036,0.072 -0.024,0 -0.048,0 -0.072,0 -0.012,0.024 -0.024,0.048 -0.036,0.072 -0.036,0.012 -0.072,0.024 -0.108,0.036 -0.024,0.036 -0.048,0.072 -0.072,0.108 -0.024,0 -0.048,0 -0.072,0 -0.024,0.036 -0.048,0.072 -0.072,0.108 -0.024,0 -0.048,0 -0.072,0 -0.024,0.036 -0.048,0.072 -0.072,0.108 -0.024,0 -0.048,0 -0.072,0 -0.024,0.036 -0.048,0.072 -0.072,0.108 -0.024,0 -0.048,0 -0.072,0 -0.012,0.024 -0.024,0.048 -0.036,0.072 -0.024,0 -0.048,0 -0.072,0 -0.024,0.036 -0.048,0.072 -0.072,0.108 -0.024,0 -0.048,0 -0.072,0 -0.024,0.036 -0.048,0.072 -0.072,0.108 -0.024,0 -0.048,0 -0.072,0 -0.024,0.036 -0.048,0.072 -0.072,0.108 -0.024,0 -0.048,0 -0.072,0 -0.024,0.036 -0.048,0.072 -0.072,0.108 -0.024,0 -0.048,0 -0.072,0 -0.012,0.024 -0.024,0.048 -0.036,0.072 -0.024,0 -0.048,0 -0.072,0 -0.024,0.036 -0.048,0.072 -0.072,0.108 -0.024,0 -0.048,0 -0.072,0 -0.024,0.036 -0.048,0.072 -0.072,0.108 -0.024,0 -0.048,0 -0.072,0 -0.024,0.036 -0.048,0.072 -0.072,0.108 -0.024,0 -0.048,0 -0.072,0 -0.024,0.036 -0.048,0.072 -0.072,0.108 -0.024,0 -0.048,0 -0.072,0 -0.012,0.024 -0.024,0.048 -0.036,0.072 -0.024,0 -0.048,0 -0.072,0 -0.024,0.036 -0.048,0.072 -0.072,0.108 -0.024,0 -0.048,0 -0.072,0 -0.024,0.036 -0.048,0.072 -0.072,0.108 -0.024,0 -0.048,0 -0.072,0 -0.024,0.036 -0.048,0.072 -0.072,0.108 -0.024,0 -0.048,0 -0.072,0 -0.024,0.036 -0.048,0.072 -0.072,0.108 -0.024,0 -0.048,0 -0.072,0 -0.012,0.024 -0.024,0.048 -0.036,0.072 -0.024,0 -0.048,0 -0.072,0 -0.012,0.024 -0.024,0.048 -0.036,0.072 -0.036,0.012 -0.072,0.024 -0.108,0.036 -0.024,0.036 -0.048,0.072 -0.072,0.108 -0.024,0 -0.048,0 -0.072,0 -0.024,0.036 -0.048,0.072 -0.072,0.108 -0.036,0.012 -0.072,0.024 -0.108,0.036 -0.012,0.024 -0.024,0.048 -0.036,0.072 -0.024,0 -0.048,0 -0.072,0 -0.012,0.024 -0.024,0.048 -0.036,0.072 -0.024,0 -0.048,0 -0.072,0 -0.024,0.036 -0.048,0.072 -0.072,0.108 -0.024,0 -0.048,0 -0.072,0 -0.024,0.036 -0.048,0.072 -0.072,0.108 -0.024,0 -0.048,0 -0.072,0 -0.024,0.036 -0.048,0.072 -0.072,0.108 -0.024,0 -0.048,0 -0.072,0 -0.024,0.036 -0.048,0.072 -0.072,0.108 -0.024,0 -0.048,0 -0.072,0 -0.024,0.036 -0.048,0.072 -0.072,0.108 -0.024,0 -0.048,0 -0.072,0 -0.012,0.024 -0.024,0.048 -0.036,0.072 -0.024,0 -0.048,0 -0.072,0 -0.024,0.036 -0.048,0.072 -0.072,0.108 -0.024,0 -0.048,0 -0.072,0 -0.024,0.036 -0.048,0.072 -0.072,0.108 -0.024,0 -0.048,0 -0.072,0 -0.024,0.036 -0.048,0.072 -0.072,0.108 -0.082,0.058 -0.155,0.069 -0.216,0.144 2.796,0 5.592,0 8.388,0 0,0.012 0,0.024 0,0.036 0.012,0 0.024,0 0.036,0 0.013,0.215 0.147,0.476 0.216,0.648 0.024,0.108 0.048,0.216 0.072,0.324 0.012,0 0.024,0 0.036,0 0.012,0.072 0.024,0.144 0.036,0.216 0.012,0 0.024,0 0.036,0 0,0.036 0,0.072 0,0.108 0.012,0 0.024,0 0.036,0 0,0.036 0,0.072 0,0.108 0.012,0 0.024,0 0.036,0 0,0.036 0,0.072 0,0.108 0.012,0 0.024,0 0.036,0 0,0.036 0,0.072 0,0.108 0.012,0 0.024,0 0.036,0 0,0.036 0,0.072 0,0.108 0.012,0 0.024,0 0.036,0 0.012,0.072 0.024,0.144 0.036,0.216 0.012,0 0.024,0 0.036,0 0,0.036 0,0.072 0,0.108 0.012,0 0.024,0 0.036,0 0,0.036 0,0.072 0,0.108 0.012,0 0.024,0 0.036,0 0,0.036 0,0.072 0,0.108 0.012,0 0.024,0 0.036,0 0,0.036 0,0.072 0,0.108 0.012,0 0.024,0 0.036,0 0,0.036 0,0.072 0,0.108 0.012,0 0.024,0 0.036,0 0,0.036 0,0.072 0,0.108 0.012,0 0.024,0 0.036,0 0.012,0.072 0.024,0.144 0.036,0.216 0.39,0.972 0.655,2.051 1.044,3.024 0.024,0.108 0.048,0.216 0.072,0.324 0.15,0.375 0.283,0.813 0.432,1.188 0,0.036 0,0.072 0,0.108 0.012,0 0.024,0 0.036,0 0,0.036 0,0.072 0,0.108 0.012,0 0.024,0 0.036,0 0,0.036 0,0.072 0,0.108 0.012,0 0.024,0 0.036,0 0,0.036 0,0.072 0,0.108 0.012,0 0.024,0 0.036,0 0.012,0.06 0.024,0.12 0.036,0.18 0.012,0 0.024,0 0.036,0 0.864,-2.652 1.728,-5.304 2.592,-7.956 2.808,-0.012 5.616,-0.024 8.424,-0.036 0,-0.012 0,-0.024 0,-0.036 -0.024,0 -0.048,0 -0.072,0 -0.076,-0.121 -0.175,-0.136 -0.288,-0.216 -0.024,-0.036 -0.048,-0.072 -0.072,-0.108 -0.024,0 -0.048,0 -0.072,0 -0.012,-0.024 -0.024,-0.048 -0.036,-0.072 -0.024,0 -0.048,0 -0.072,0 -0.024,-0.036 -0.048,-0.072 -0.072,-0.108 -0.024,0 -0.048,0 -0.072,0 -0.024,-0.036 -0.048,-0.072 -0.072,-0.108 -0.024,0 -0.048,0 -0.072,0 -0.024,-0.036 -0.048,-0.072 -0.072,-0.108 -0.024,0 -0.048,0 -0.072,0 -0.012,-0.024 -0.024,-0.048 -0.036,-0.072 -0.024,0 -0.048,0 -0.072,0 -0.024,-0.036 -0.048,-0.072 -0.072,-0.108 -0.024,0 -0.048,0 -0.072,0 -0.024,-0.036 -0.048,-0.072 -0.072,-0.108 -0.024,0 -0.048,0 -0.072,0 -0.024,-0.036 -0.048,-0.072 -0.072,-0.108 -0.024,0 -0.048,0 -0.072,0 -0.012,-0.024 -0.024,-0.048 -0.036,-0.072 -0.024,0 -0.048,0 -0.072,0 -0.024,-0.036 -0.048,-0.072 -0.072,-0.108 -0.024,0 -0.048,0 -0.072,0 -0.024,-0.036 -0.048,-0.072 -0.072,-0.108 -0.024,0 -0.048,0 -0.072,0 -0.024,-0.036 -0.048,-0.072 -0.072,-0.108 -0.024,0 -0.048,0 -0.072,0 -0.012,-0.024 -0.024,-0.048 -0.036,-0.072 -0.024,0 -0.048,0 -0.072,0 -0.024,-0.036 -0.048,-0.072 -0.072,-0.108 -0.024,0 -0.048,0 -0.072,0 -0.024,-0.036 -0.048,-0.072 -0.072,-0.108 -0.024,0 -0.048,0 -0.072,0 -0.024,-0.036 -0.048,-0.072 -0.072,-0.108 -0.024,0 -0.048,0 -0.072,0 -0.012,-0.024 -0.024,-0.048 -0.036,-0.072 -0.024,0 -0.048,0 -0.072,0 -0.024,-0.036 -0.048,-0.072 -0.072,-0.108 -0.024,0 -0.048,0 -0.072,0 -0.024,-0.036 -0.048,-0.072 -0.072,-0.108 -0.024,0 -0.048,0 -0.072,0 -0.024,-0.036 -0.048,-0.072 -0.072,-0.108 -0.024,0 -0.048,0 -0.072,0 -0.012,-0.024 -0.024,-0.048 -0.036,-0.072 -0.024,0 -0.048,0 -0.072,0 -0.024,-0.036 -0.048,-0.072 -0.072,-0.108 -0.024,0 -0.048,0 -0.072,0 -0.024,-0.036 -0.048,-0.072 -0.072,-0.108 -0.024,0 -0.048,0 -0.072,0 -0.024,-0.036 -0.048,-0.072 -0.072,-0.108 -0.024,0 -0.048,0 -0.072,0 -0.012,-0.024 -0.024,-0.048 -0.036,-0.072 -0.024,0 -0.048,0 -0.072,0 -0.024,-0.036 -0.048,-0.072 -0.072,-0.108 -0.024,0 -0.048,0 -0.072,0 -0.024,-0.036 -0.048,-0.072 -0.072,-0.108 -0.024,0 -0.048,0 -0.072,0 -0.024,-0.036 -0.048,-0.072 -0.072,-0.108 -0.024,0 -0.048,0 -0.072,0 -0.012,-0.024 -0.024,-0.048 -0.036,-0.072 -0.024,0 -0.048,0 -0.072,0 -0.024,-0.036 -0.048,-0.072 -0.072,-0.108 -0.024,0 -0.048,0 -0.072,0 -0.024,-0.036 -0.048,-0.072 -0.072,-0.108 -0.036,-0.012 -0.072,-0.024 -0.108,-0.036 -0.012,-0.024 -0.024,-0.048 -0.036,-0.072 -0.024,0 -0.048,0 -0.072,0 -0.012,-0.024 -0.024,-0.048 -0.036,-0.072 -0.024,0 -0.048,0 -0.072,0 -0.012,-0.024 -0.024,-0.048 -0.036,-0.072 -0.036,-0.012 -0.072,-0.024 -0.108,-0.036 -0.024,-0.036 -0.048,-0.072 -0.072,-0.108 -0.024,0 -0.048,0 -0.072,0 -0.024,-0.036 -0.048,-0.072 -0.072,-0.108 -0.036,-0.012 -0.072,-0.024 -0.108,-0.036 -0.012,-0.024 -0.024,-0.048 -0.036,-0.072 -0.024,0 -0.048,0 -0.072,0 -0.012,-0.024 -0.024,-0.048 -0.036,-0.072 -0.024,0 -0.048,0 -0.072,0 -0.024,-0.036 -0.048,-0.072 -0.072,-0.108 -0.024,0 -0.048,0 -0.072,0 -0.024,-0.036 -0.048,-0.072 -0.072,-0.108 -0.036,-0.012 -0.072,-0.024 -0.108,-0.036 -0.012,-0.024 -0.024,-0.048 -0.036,-0.072 -0.024,0 -0.048,0 -0.072,0 -0.012,-0.024 -0.024,-0.048 -0.036,-0.072 -0.024,0 -0.048,0 -0.072,0 -0.012,-0.024 -0.024,-0.048 -0.036,-0.072 -0.036,-0.012 -0.072,-0.024 -0.108,-0.036 -0.024,-0.036 -0.048,-0.072 -0.072,-0.108 -0.024,0 -0.048,0 -0.072,0 -0.024,-0.036 -0.048,-0.072 -0.072,-0.108 -0.127,-0.088 -0.242,-0.079 -0.288,-0.252 0.105,-0.115 0.115,-0.377 0.18,-0.54 0.139,-0.346 0.257,-0.769 0.396,-1.116 0.024,-0.108 0.048,-0.216 0.072,-0.324 0.355,-0.887 0.583,-1.888 0.936,-2.772 0.024,-0.12 0.048,-0.24 0.072,-0.36 0.012,0 0.024,0 0.036,0 0.012,-0.072 0.024,-0.144 0.036,-0.216 0.012,0 0.024,0 0.036,0 0,-0.036 0,-0.072 0,-0.108 0.012,0 0.024,0 0.036,0 0,-0.036 0,-0.072 0,-0.108 0.012,0 0.024,0 0.036,0 0,-0.036 0,-0.072 0,-0.108 0.012,0 0.024,0 0.036,0 0,-0.036 0,-0.072 0,-0.108 0.012,0 0.024,0 0.036,0 0,-0.036 0,-0.072 0,-0.108 0.012,0 0.024,0 0.036,0 0.012,-0.072 0.024,-0.144 0.036,-0.216 0.012,0 0.024,0 0.036,0 0.012,-0.084 0.024,-0.168 0.036,-0.252 0.068,-0.189 0.171,-0.395 0.216,-0.612 0.294,-0.004 0.603,-0.134 0.828,-0.216 0.048,0 0.096,0 0.144,0 0,-0.012 0,-0.024 0,-0.036 0.036,0 0.072,0 0.108,0 0,-0.012 0,-0.024 0,-0.036 0.048,0 0.096,0 0.144,0 0,-0.012 0,-0.024 0,-0.036 0.036,0 0.072,0 0.108,0 0,-0.012 0,-0.024 0,-0.036 0.036,0 0.072,0 0.108,0 0,-0.012 0,-0.024 0,-0.036 0.036,0 0.072,0 0.108,0 0,-0.012 0,-0.024 0,-0.036 0.036,0 0.072,0 0.108,0 0,-0.012 0,-0.024 0,-0.036 0.036,0 0.072,0 0.108,0 0,-0.012 0,-0.024 0,-0.036 0.072,-0.012 0.144,-0.024 0.216,-0.036 0,-0.012 0,-0.024 0,-0.036 0.024,0 0.048,0 0.072,0 0,-0.012 0,-0.024 0,-0.036 0.108,-0.024 0.216,-0.048 0.324,-0.072 0,-0.012 0,-0.024 0,-0.036 0.024,0 0.048,0 0.072,0 0,-0.012 0,-0.024 0,-0.036 0.072,-0.012 0.144,-0.024 0.216,-0.036 0,-0.012 0,-0.024 0,-0.036 0.024,0 0.048,0 0.072,0 0,-0.012 0,-0.024 0,-0.036 0.036,0 0.072,0 0.108,0 0,-0.012 0,-0.024 0,-0.036 0.06,-0.012 0.12,-0.024 0.18,-0.036 0,-0.012 0,-0.024 0,-0.036 0.048,-0.012 0.096,-0.024 0.144,-0.036 0,-0.012 0,-0.024 0,-0.036 0.036,0 0.072,0 0.108,0 0,-0.012 0,-0.024 0,-0.036 0.024,0 0.048,0 0.072,0 0,-0.012 0,-0.024 0,-0.036 0.036,0 0.072,0 0.108,0 0,-0.012 0,-0.024 0,-0.036 0.048,-0.012 0.096,-0.024 0.144,-0.036 0,-0.012 0,-0.024 0,-0.036 0.024,0 0.048,0 0.072,0 0,-0.012 0,-0.024 0,-0.036 0.036,0 0.072,0 0.108,0 0,-0.012 0,-0.024 0,-0.036 0.024,0 0.048,0 0.072,0 0,-0.012 0,-0.024 0,-0.036 0.072,-0.024 0.144,-0.048 0.216,-0.072 0,-0.012 0,-0.024 0,-0.036 0.036,0 0.072,0 0.108,0 0,-0.012 0,-0.024 0,-0.036 0.024,0 0.048,0 0.072,0 0,-0.012 0,-0.024 0,-0.036 0.048,-0.012 0.096,-0.024 0.144,-0.036 0,-0.012 0,-0.024 0,-0.036 0.048,-0.012 0.096,-0.024 0.144,-0.036 0,-0.012 0,-0.024 0,-0.036 0.048,-0.012 0.096,-0.024 0.144,-0.036 0,-0.012 0,-0.024 0,-0.036 0.024,0 0.048,0 0.072,0 0,-0.012 0,-0.024 0,-0.036 0.024,0 0.048,0 0.072,0 0,-0.012 0,-0.024 0,-0.036 0.024,0 0.048,0 0.072,0 0,-0.012 0,-0.024 0,-0.036 0.024,0 0.048,0 0.072,0 0,-0.012 0,-0.024 0,-0.036 0.024,0 0.048,0 0.072,0 0,-0.012 0,-0.024 0,-0.036 0.192,-0.084 0.384,-0.168 0.576,-0.252 0.012,-0.024 0.024,-0.048 0.036,-0.072 0.024,0 0.048,0 0.072,0 0,-0.012 0,-0.024 0,-0.036 0.024,0 0.048,0 0.072,0 l 0.072,-0.072 c 0.024,0 0.048,0 0.072,0 0.012,-0.024 0.024,-0.048 0.036,-0.072 0.024,0 0.048,0 0.072,0 0,-0.012 0,-0.024 0,-0.036 0.024,0 0.048,0 0.072,0 l 0.072,-0.072 c 0.024,0 0.048,0 0.072,0 0.012,-0.024 0.024,-0.048 0.036,-0.072 0.048,-0.012 0.096,-0.024 0.144,-0.036 0.012,-0.024 0.024,-0.048 0.036,-0.072 0.048,-0.012 0.096,-0.024 0.144,-0.036 0.012,-0.024 0.024,-0.048 0.036,-0.072 0.048,-0.012 0.096,-0.024 0.144,-0.036 0.012,-0.024 0.024,-0.048 0.036,-0.072 0.048,-0.012 0.096,-0.024 0.144,-0.036 0,-0.012 0,-0.024 0,-0.036 0.036,-0.012 0.072,-0.024 0.108,-0.036 0.012,-0.024 0.024,-0.048 0.036,-0.072 0.048,-0.012 0.096,-0.024 0.144,-0.036 0.012,-0.024 0.024,-0.048 0.036,-0.072 0.024,0 0.048,0 0.072,0 0.012,-0.024 0.024,-0.048 0.036,-0.072 0.024,0 0.048,0 0.072,0 0.012,-0.024 0.024,-0.048 0.036,-0.072 0.024,0 0.048,0 0.072,0 0.012,-0.024 0.024,-0.048 0.036,-0.072 0.048,-0.012 0.096,-0.024 0.144,-0.036 0.012,-0.024 0.024,-0.048 0.036,-0.072 0.024,0 0.048,0 0.072,0 0.024,-0.036 0.048,-0.072 0.072,-0.108 0.024,0 0.048,0 0.072,0 0.012,-0.024 0.024,-0.048 0.036,-0.072 0.036,-0.012 0.072,-0.024 0.108,-0.036 0,-0.012 0,-0.024 0,-0.036 0.024,0 0.048,0 0.072,0 0.012,-0.024 0.024,-0.048 0.036,-0.072 0.024,0 0.048,0 0.072,0 0.012,-0.024 0.024,-0.048 0.036,-0.072 0.024,0 0.048,0 0.072,0 0.024,-0.036 0.048,-0.072 0.072,-0.108 0.024,0 0.048,0 0.072,0 0.024,-0.036 0.048,-0.072 0.072,-0.108 0.024,0 0.048,0 0.072,0 0.012,-0.024 0.024,-0.048 0.036,-0.072 0.024,0 0.048,0 0.072,0 0.024,-0.036 0.048,-0.072 0.072,-0.108 0.024,0 0.048,0 0.072,0 0.024,-0.036 0.048,-0.072 0.072,-0.108 0.024,0 0.048,0 0.072,0 0.024,-0.036 0.048,-0.072 0.072,-0.108 0.024,0 0.048,0 0.072,0 0.036,-0.048 0.072,-0.096 0.108,-0.144 0.024,0 0.048,0 0.072,0 0.024,-0.036 0.048,-0.072 0.072,-0.108 0.024,0 0.048,0 0.072,0 0.036,-0.048 0.072,-0.096 0.108,-0.144 0.024,0 0.048,0 0.072,0 0.036,-0.048 0.072,-0.096 0.108,-0.144 0.024,0 0.048,0 0.072,0 0.048,-0.06 0.096,-0.12 0.144,-0.18 0.024,0 0.048,0 0.072,0 0.048,-0.06 0.096,-0.12 0.144,-0.18 0.024,0 0.048,0 0.072,0 0.06,-0.072 0.12,-0.144 0.18,-0.216 0.024,0 0.048,0 0.072,0 0.084,-0.096 0.168,-0.192 0.252,-0.288 0.024,0 0.048,0 0.072,0 0.12,-0.132 0.24,-0.264 0.36,-0.396 0.024,0 0.048,0 0.072,0 0.144,-0.156 0.288,-0.312 0.432,-0.468 0.297,-0.297 0.614,-0.554 0.864,-0.9 0.144,-0.132 0.288,-0.264 0.432,-0.396 0,-0.024 0,-0.048 0,-0.072 0.084,-0.072 0.168,-0.144 0.252,-0.216 0,-0.024 0,-0.048 0,-0.072 0.06,-0.048 0.12,-0.096 0.18,-0.144 0,-0.024 0,-0.048 0,-0.072 0.024,-0.012 0.048,-0.024 0.072,-0.036 0.024,-0.036 0.048,-0.072 0.072,-0.108 0.012,0 0.024,0 0.036,0 0,-0.024 0,-0.048 0,-0.072 0.06,-0.048 0.12,-0.096 0.18,-0.144 0,-0.024 0,-0.048 0,-0.072 0.048,-0.036 0.096,-0.072 0.144,-0.108 0,-0.024 0,-0.048 0,-0.072 0.036,-0.024 0.072,-0.048 0.108,-0.072 0,-0.024 0,-0.048 0,-0.072 0.036,-0.024 0.072,-0.048 0.108,-0.072 0,-0.024 0,-0.048 0,-0.072 0.036,-0.024 0.072,-0.048 0.108,-0.072 0,-0.024 0,-0.048 0,-0.072 0.048,-0.036 0.096,-0.072 0.144,-0.108 0,-0.024 0,-0.048 0,-0.072 0.024,-0.012 0.048,-0.024 0.072,-0.036 0,-0.024 0,-0.048 0,-0.072 0.036,-0.024 0.072,-0.048 0.108,-0.072 0,-0.024 0,-0.048 0,-0.072 0.024,-0.012 0.048,-0.024 0.072,-0.036 0,-0.024 0,-0.048 0,-0.072 0.036,-0.024 0.072,-0.048 0.108,-0.072 0,-0.024 0,-0.048 0,-0.072 0.024,-0.012 0.048,-0.024 0.072,-0.036 0.012,-0.036 0.024,-0.072 0.036,-0.108 0.012,0 0.024,0 0.036,0 0,-0.024 0,-0.048 0,-0.072 0.024,-0.012 0.048,-0.024 0.072,-0.036 0,-0.024 0,-0.048 0,-0.072 0.024,-0.012 0.048,-0.024 0.072,-0.036 0,-0.024 0,-0.048 0,-0.072 0.024,-0.012 0.048,-0.024 0.072,-0.036 0,-0.024 0,-0.048 0,-0.072 0.024,-0.012 0.048,-0.024 0.072,-0.036 0,-0.024 0,-0.048 0,-0.072 0.024,-0.012 0.048,-0.024 0.072,-0.036 0.012,-0.048 0.024,-0.096 0.036,-0.144 0.012,0 0.024,0 0.036,0 0.012,-0.036 0.024,-0.072 0.036,-0.108 0.024,-0.012 0.048,-0.024 0.072,-0.036 0,-0.024 0,-0.048 0,-0.072 0.012,0 0.024,0 0.036,0 0,-0.024 0,-0.048 0,-0.072 0.024,-0.012 0.048,-0.024 0.072,-0.036 0.012,-0.048 0.024,-0.096 0.036,-0.144 0.024,-0.012 0.048,-0.024 0.072,-0.036 0.012,-0.048 0.024,-0.096 0.036,-0.144 0.024,-0.012 0.048,-0.024 0.072,-0.036 0.012,-0.048 0.024,-0.096 0.036,-0.144 0.024,-0.012 0.048,-0.024 0.072,-0.036 0,-0.024 0,-0.048 0,-0.072 0.012,0 0.024,0 0.036,0 0,-0.024 0,-0.048 0,-0.072 l 0.072,-0.072 c 0,-0.024 0,-0.048 0,-0.072 0.024,-0.012 0.048,-0.024 0.072,-0.036 0,-0.024 0,-0.048 0,-0.072 l 0.072,-0.072 c 0,-0.024 0,-0.048 0,-0.072 0.012,0 0.024,0 0.036,0 0,-0.024 0,-0.048 0,-0.072 0.012,0 0.024,0 0.036,0 0.012,-0.048 0.024,-0.096 0.036,-0.144 0.024,-0.012 0.048,-0.024 0.072,-0.036 0,-0.024 0,-0.048 0,-0.072 l 0.072,-0.072 c 0,-0.024 0,-0.048 0,-0.072 0.012,0 0.024,0 0.036,0 0,-0.024 0,-0.048 0,-0.072 0.012,0 0.024,0 0.036,0 0,-0.024 0,-0.048 0,-0.072 0.012,0 0.024,0 0.036,0 0,-0.024 0,-0.048 0,-0.072 0.012,0 0.024,0 0.036,0 0,-0.024 0,-0.048 0,-0.072 0.012,0 0.024,0 0.036,0 0,-0.024 0,-0.048 0,-0.072 0.012,0 0.024,0 0.036,0 0,-0.024 0,-0.048 0,-0.072 0.012,0 0.024,0 0.036,0 0.024,-0.072 0.048,-0.144 0.072,-0.216 0.012,0 0.024,0 0.036,0 0,-0.036 0,-0.072 0,-0.108 0.012,0 0.024,0 0.036,0 0,-0.024 0,-0.048 0,-0.072 0.012,0 0.024,0 0.036,0 0,-0.024 0,-0.048 0,-0.072 0.012,0 0.024,0 0.036,0 0.024,-0.072 0.048,-0.144 0.072,-0.216 0.012,0 0.024,0 0.036,0 0,-0.036 0,-0.072 0,-0.108 0.012,0 0.024,0 0.036,0 0,-0.024 0,-0.048 0,-0.072 0.012,0 0.024,0 0.036,0 0,-0.024 0,-0.048 0,-0.072 0.012,0 0.024,0 0.036,0 0,-0.024 0,-0.048 0,-0.072 0.012,0 0.024,0 0.036,0 0,-0.036 0,-0.072 0,-0.108 0.012,0 0.024,0 0.036,0 0,-0.024 0,-0.048 0,-0.072 0.012,0 0.024,0 0.036,0 0,-0.036 0,-0.072 0,-0.108 0.012,0 0.024,0 0.036,0 0.012,-0.048 0.024,-0.096 0.036,-0.144 0.012,0 0.024,0 0.036,0 0,-0.036 0,-0.072 0,-0.108 0.012,0 0.024,0 0.036,0 0,-0.024 0,-0.048 0,-0.072 0.012,0 0.024,0 0.036,0 0,-0.036 0,-0.072 0,-0.108 0.012,0 0.024,0 0.036,0 0,-0.024 0,-0.048 0,-0.072 0.012,0 0.024,0 0.036,0 0,-0.036 0,-0.072 0,-0.108 0.012,0 0.024,0 0.036,0 0,-0.024 0,-0.048 0,-0.072 0.012,0 0.024,0 0.036,0 0.012,-0.072 0.024,-0.144 0.036,-0.216 0.012,0 0.024,0 0.036,0 0,-0.024 0,-0.048 0,-0.072 0.012,0 0.024,0 0.036,0 0.024,-0.108 0.048,-0.216 0.072,-0.324 0.012,0 0.024,0 0.036,0 0,-0.024 0,-0.048 0,-0.072 0.012,0 0.024,0 0.036,0 0.012,-0.072 0.024,-0.144 0.036,-0.216 0.012,0 0.024,0 0.036,0 0,-0.036 0,-0.072 0,-0.108 0.012,0 0.024,0 0.036,0 0,-0.036 0,-0.072 0,-0.108 0.012,0 0.024,0 0.036,0 0,-0.036 0,-0.072 0,-0.108 0.012,0 0.024,0 0.036,0 0,-0.036 0,-0.072 0,-0.108 0.012,0 0.024,0 0.036,0 0,-0.036 0,-0.072 0,-0.108 0.012,0 0.024,0 0.036,0 0,-0.036 0,-0.072 0,-0.108 0.012,0 0.024,0 0.036,0 0,-0.048 0,-0.096 0,-0.144 0.012,0 0.024,0 0.036,0 0,-0.036 0,-0.072 0,-0.108 0.012,0 0.024,0 0.036,0 0,-0.036 0,-0.072 0,-0.108 0.012,0 0.024,0 0.036,0 0,-0.036 0,-0.072 0,-0.108 0.012,0 0.024,0 0.036,0 0.012,-0.084 0.024,-0.168 0.036,-0.252 0.012,0 0.024,0 0.036,0 0,-0.048 0,-0.096 0,-0.144 0.012,0 0.024,0 0.036,0 0,-0.048 0,-0.096 0,-0.144 0.012,0 0.024,0 0.036,0 0,-0.036 0,-0.072 0,-0.108 0.012,0 0.024,0 0.036,0 0,-0.048 0,-0.096 0,-0.144 0.012,0 0.024,0 0.036,0 0.012,-0.096 0.024,-0.192 0.036,-0.288 0.131,-0.384 0.2,-0.864 0.324,-1.26 0.012,-0.132 0.024,-0.264 0.036,-0.396 0.118,-0.388 0.136,-0.899 0.252,-1.296 0,-0.096 0,-0.192 0,-0.288 0.012,0 0.024,0 0.036,0 0,-0.096 0,-0.192 0,-0.288 0.012,0 0.024,0 0.036,0 0,-0.108 0,-0.216 0,-0.324 0.012,0 0.024,0 0.036,0 0,-0.12 0,-0.24 0,-0.36 0.012,0 0.024,0 0.036,0 0,-0.132 0,-0.264 0,-0.396 0.012,0 0.024,0 0.036,0 0.012,-0.42 0.024,-0.84 0.036,-1.26 0.076,-0.273 0.077,-1.348 0,-1.62 m -21.096,26.532 c -1.608,1.164 -3.216,2.328 -4.824,3.492 -0.063,-0.074 -0.134,-0.086 -0.216,-0.144 -0.024,-0.036 -0.048,-0.072 -0.072,-0.108 -0.024,0 -0.048,0 -0.072,0 -0.012,-0.024 -0.024,-0.048 -0.036,-0.072 -0.024,0 -0.048,0 -0.072,0 -0.012,-0.024 -0.024,-0.048 -0.036,-0.072 -0.036,-0.012 -0.072,-0.024 -0.108,-0.036 -0.024,-0.036 -0.048,-0.072 -0.072,-0.108 -0.024,0 -0.048,0 -0.072,0 -0.012,-0.024 -0.024,-0.048 -0.036,-0.072 -0.024,0 -0.048,0 -0.072,0 -0.024,-0.036 -0.048,-0.072 -0.072,-0.108 -0.024,0 -0.048,0 -0.072,0 -0.012,-0.024 -0.024,-0.048 -0.036,-0.072 -0.024,0 -0.048,0 -0.072,0 -0.012,-0.024 -0.024,-0.048 -0.036,-0.072 -0.036,-0.012 -0.072,-0.024 -0.108,-0.036 -0.024,-0.036 -0.048,-0.072 -0.072,-0.108 -0.024,0 -0.048,0 -0.072,0 -0.012,-0.024 -0.024,-0.048 -0.036,-0.072 -0.024,0 -0.048,0 -0.072,0 -0.012,-0.024 -0.024,-0.048 -0.036,-0.072 -0.036,-0.012 -0.072,-0.024 -0.108,-0.036 -0.024,-0.036 -0.048,-0.072 -0.072,-0.108 -0.024,0 -0.048,0 -0.072,0 -0.012,-0.024 -0.024,-0.048 -0.036,-0.072 -0.024,0 -0.048,0 -0.072,0 -0.012,-0.024 -0.024,-0.048 -0.036,-0.072 -0.036,-0.012 -0.072,-0.024 -0.108,-0.036 -0.024,-0.036 -0.048,-0.072 -0.072,-0.108 -0.024,0 -0.048,0 -0.072,0 -0.012,-0.024 -0.024,-0.048 -0.036,-0.072 -0.024,0 -0.048,0 -0.072,0 -0.012,-0.024 -0.024,-0.048 -0.036,-0.072 -0.036,-0.012 -0.072,-0.024 -0.108,-0.036 -0.024,-0.036 -0.048,-0.072 -0.072,-0.108 -0.024,0 -0.048,0 -0.072,0 -0.012,-0.024 -0.024,-0.048 -0.036,-0.072 -0.024,0 -0.048,0 -0.072,0 -0.024,-0.036 -0.048,-0.072 -0.072,-0.108 -0.024,0 -0.048,0 -0.072,0 -0.012,-0.024 -0.024,-0.048 -0.036,-0.072 -0.024,0 -0.048,0 -0.072,0 -0.024,-0.036 -0.048,-0.072 -0.072,-0.108 -0.024,0 -0.048,0 -0.072,0 -0.024,-0.036 -0.048,-0.072 -0.072,-0.108 -0.024,0 -0.048,0 -0.072,0 -0.012,-0.024 -0.024,-0.048 -0.036,-0.072 -0.024,0 -0.048,0 -0.072,0 -0.012,-0.024 -0.024,-0.048 -0.036,-0.072 -0.036,-0.012 -0.072,-0.024 -0.108,-0.036 -0.024,-0.036 -0.048,-0.072 -0.072,-0.108 -0.024,0 -0.048,0 -0.072,0 -0.012,-0.024 -0.024,-0.048 -0.036,-0.072 -0.024,0 -0.048,0 -0.072,0 -0.012,-0.024 -0.024,-0.048 -0.036,-0.072 -0.036,-0.012 -0.072,-0.024 -0.108,-0.036 -0.024,-0.036 -0.048,-0.072 -0.072,-0.108 -0.024,0 -0.048,0 -0.072,0 -0.012,-0.024 -0.024,-0.048 -0.036,-0.072 -0.024,0 -0.048,0 -0.072,0 -0.024,-0.036 -0.048,-0.072 -0.072,-0.108 -0.024,0 -0.048,0 -0.072,0 -0.012,-0.024 -0.024,-0.048 -0.036,-0.072 -0.024,0 -0.048,0 -0.072,0 -0.024,-0.036 -0.048,-0.072 -0.072,-0.108 -0.024,0 -0.048,0 -0.072,0 -0.024,-0.036 -0.048,-0.072 -0.072,-0.108 -0.103,-0.072 -0.186,-0.07 -0.252,-0.18 0.024,0 0.048,0 0.072,0 0.097,0.087 0.246,0.028 0.396,0.072 0,0.012 0,0.024 0,0.036 0.084,0 0.168,0 0.252,0 0.341,0.098 0.806,0.083 1.152,0.18 0.12,0 0.24,0 0.36,0 0,0.012 0,0.024 0,0.036 0.144,0 0.288,0 0.432,0 0,0 0.004,0.03 0.072,0.036 0.132,0 0.264,0 0.396,0 0,0.012 0,0.024 0,0.036 0.228,0 0.456,0 0.684,0 0,0.012 0,0.024 0,0.036 0.576,0 1.152,0 1.728,0 1.494,0 2.871,-0.162 4.14,-0.396 0,0.012 0,0.024 0,0.036"
         inkscape:connector-curvature="0" />
    </clipPath>
    <clipPath
       id="clipPath29259">
      <path
         id="path29261"
         d="m 399.685,574.913 68.031,0 0,-70 -68.031,0 0,70 z"
         inkscape:connector-curvature="0" />
    </clipPath>
    <clipPath
       id="clipPath29265">
      <path
         id="path29267"
         d="M 0,841 595,841 595,0 0,0 0,841 Z"
         inkscape:connector-curvature="0" />
    </clipPath>
    <clipPath
       id="clipPath29271">
      <path
         id="path29273"
         d="m 0.36,841.68 595.44,0 L 595.8,0 0.36,0 l 0,841.68 z"
         inkscape:connector-curvature="0" />
    </clipPath>
    <clipPath
       id="clipPath29283">
      <path
         id="path29285"
         d="m 484.724,574.913 68.032,0 0,-70 -68.032,0 0,70 z"
         inkscape:connector-curvature="0" />
    </clipPath>
    <clipPath
       id="clipPath29289">
      <path
         id="path29291"
         d="M 0,841 595,841 595,0 0,0 0,841 Z"
         inkscape:connector-curvature="0" />
    </clipPath>
    <clipPath
       id="clipPath29295">
      <path
         id="path29297"
         d="m 0.36,841.68 595.44,0 L 595.8,0 0.36,0 l 0,841.68 z"
         inkscape:connector-curvature="0" />
    </clipPath>
    <clipPath
       id="clipPath29381">
      <path
         id="path29383"
         d="m 149.952,574.913 62.646,0 0,-70 -62.646,0 0,70 z"
         inkscape:connector-curvature="0" />
    </clipPath>
    <clipPath
       id="clipPath29387">
      <path
         id="path29389"
         d="M 0,841 595,841 595,0 0,0 0,841 Z"
         inkscape:connector-curvature="0" />
    </clipPath>
    <clipPath
       id="clipPath29393">
      <path
         id="path29395"
         d="m 0.36,841.68 595.44,0 L 595.8,0 0.36,0 l 0,841.68 z"
         inkscape:connector-curvature="0" />
    </clipPath>
    <clipPath
       id="clipPath29463">
      <path
         id="path29465"
         d="m 229.606,574.913 68.032,0 0,-70 -68.032,0 0,70 z"
         inkscape:connector-curvature="0" />
    </clipPath>
    <clipPath
       id="clipPath29469">
      <path
         id="path29471"
         d="M 0,841 595,841 595,0 0,0 0,841 Z"
         inkscape:connector-curvature="0" />
    </clipPath>
    <clipPath
       id="clipPath29475">
      <path
         id="path29477"
         d="m 0.36,841.68 595.44,0 L 595.8,0 0.36,0 l 0,841.68 z"
         inkscape:connector-curvature="0" />
    </clipPath>
    <clipPath
       id="clipPath29555">
      <path
         id="path29557"
         d="m 314.646,574.913 68.031,0 0,-70 -68.031,0 0,70 z"
         inkscape:connector-curvature="0" />
    </clipPath>
    <clipPath
       id="clipPath29561">
      <path
         id="path29563"
         d="M 0,841 595,841 595,0 0,0 0,841 Z"
         inkscape:connector-curvature="0" />
    </clipPath>
    <clipPath
       id="clipPath29567">
      <path
         id="path29569"
         d="m 0.36,841.68 595.44,0 L 595.8,0 0.36,0 l 0,841.68 z"
         inkscape:connector-curvature="0" />
    </clipPath>
    <clipPath
       id="clipPath29651">
      <path
         id="path29653"
         d="m 399.685,468.291 68.031,0 0,-70 -68.031,0 0,70 z"
         inkscape:connector-curvature="0" />
    </clipPath>
    <clipPath
       id="clipPath29657">
      <path
         id="path29659"
         d="M 0,841 595,841 595,0 0,0 0,841 Z"
         inkscape:connector-curvature="0" />
    </clipPath>
    <clipPath
       id="clipPath29663">
      <path
         id="path29665"
         d="m 0.36,841.68 595.44,0 L 595.8,0 0.36,0 l 0,841.68 z"
         inkscape:connector-curvature="0" />
    </clipPath>
    <clipPath
       id="clipPath29751">
      <path
         id="path29753"
         d="m 484.724,468.291 68.032,0 0,-70 -68.032,0 0,70 z"
         inkscape:connector-curvature="0" />
    </clipPath>
    <clipPath
       id="clipPath29757">
      <path
         id="path29759"
         d="M 0,841 595,841 595,0 0,0 0,841 Z"
         inkscape:connector-curvature="0" />
    </clipPath>
    <clipPath
       id="clipPath29763">
      <path
         id="path29765"
         d="m 0.36,841.68 595.44,0 L 595.8,0 0.36,0 l 0,841.68 z"
         inkscape:connector-curvature="0" />
    </clipPath>
    <clipPath
       id="clipPath29817">
      <path
         id="path29819"
         d="m 150.236,468.291 62.362,0 0,-70 -62.362,0 0,70 z"
         inkscape:connector-curvature="0" />
    </clipPath>
    <clipPath
       id="clipPath29823">
      <path
         id="path29825"
         d="M 0,841 595,841 595,0 0,0 0,841 Z"
         inkscape:connector-curvature="0" />
    </clipPath>
    <clipPath
       id="clipPath29829">
      <path
         id="path29831"
         d="m 0.36,841.68 595.44,0 L 595.8,0 0.36,0 l 0,841.68 z"
         inkscape:connector-curvature="0" />
    </clipPath>
    <clipPath
       id="clipPath29921">
      <path
         id="path29923"
         d="m 229.606,468.291 68.032,0 0,-70 -68.032,0 0,70 z"
         inkscape:connector-curvature="0" />
    </clipPath>
    <clipPath
       id="clipPath29927">
      <path
         id="path29929"
         d="M 0,841 595,841 595,0 0,0 0,841 Z"
         inkscape:connector-curvature="0" />
    </clipPath>
    <clipPath
       id="clipPath29933">
      <path
         id="path29935"
         d="m 0.36,841.68 595.44,0 L 595.8,0 0.36,0 l 0,841.68 z"
         inkscape:connector-curvature="0" />
    </clipPath>
    <clipPath
       id="clipPath30047">
      <path
         id="path30049"
         d="m 314.646,468.291 68.031,0 0,-70 -68.031,0 0,70 z"
         inkscape:connector-curvature="0" />
    </clipPath>
    <clipPath
       id="clipPath30053">
      <path
         id="path30055"
         d="M 0,841 595,841 595,0 0,0 0,841 Z"
         inkscape:connector-curvature="0" />
    </clipPath>
    <clipPath
       id="clipPath30059">
      <path
         id="path30061"
         d="m 0.36,841.68 595.44,0 L 595.8,0 0.36,0 l 0,841.68 z"
         inkscape:connector-curvature="0" />
    </clipPath>
    <clipPath
       id="clipPath30113">
      <path
         id="path30115"
         d="m 399.685,362.137 68.031,0 0,-70 -68.031,0 0,70 z"
         inkscape:connector-curvature="0" />
    </clipPath>
    <clipPath
       id="clipPath30119">
      <path
         id="path30121"
         d="M 0,841 595,841 595,0 0,0 0,841 Z"
         inkscape:connector-curvature="0" />
    </clipPath>
    <clipPath
       id="clipPath30125">
      <path
         id="path30127"
         d="m 0.36,841.68 595.44,0 L 595.8,0 0.36,0 l 0,841.68 z"
         inkscape:connector-curvature="0" />
    </clipPath>
    <clipPath
       id="clipPath30221">
      <path
         id="path30223"
         d="m 484.724,362.137 68.032,0 0,-70 -68.032,0 0,70 z"
         inkscape:connector-curvature="0" />
    </clipPath>
    <clipPath
       id="clipPath30227">
      <path
         id="path30229"
         d="M 0,841 595,841 595,0 0,0 0,841 Z"
         inkscape:connector-curvature="0" />
    </clipPath>
    <clipPath
       id="clipPath30233">
      <path
         id="path30235"
         d="m 0.36,841.68 595.44,0 L 595.8,0 0.36,0 l 0,841.68 z"
         inkscape:connector-curvature="0" />
    </clipPath>
    <clipPath
       id="clipPath30263">
      <path
         id="path30265"
         d="m 144.567,362.137 68.031,0 0,-70 -68.031,0 0,70 z"
         inkscape:connector-curvature="0" />
    </clipPath>
    <clipPath
       id="clipPath30269">
      <path
         id="path30271"
         d="M 0,841 595,841 595,0 0,0 0,841 Z"
         inkscape:connector-curvature="0" />
    </clipPath>
    <clipPath
       id="clipPath30275">
      <path
         id="path30277"
         d="m 0.36,841.68 595.44,0 L 595.8,0 0.36,0 l 0,841.68 z"
         inkscape:connector-curvature="0" />
    </clipPath>
    <clipPath
       id="clipPath30311">
      <path
         id="path30313"
         d="m 177.983,298.659 c 0.192,2.683 8.145,2.492 8.145,2.492 6.805,0.287 11.309,1.916 11.309,1.916 16.387,5.175 7.283,23.191 7.283,23.191 -3.929,8.433 -0.384,14.279 -0.384,14.279 l 0,13.225 c -20.028,0.096 -26.353,2.204 -26.353,2.204 0,0 -6.325,-2.108 -26.353,-2.204 l 0,-13.225 c 0,0 3.545,-5.846 -0.384,-14.279 0,0 -9.104,-18.016 7.283,-23.191 0,0 4.504,-1.629 11.308,-1.916 0,0 7.954,0.191 8.146,-2.492"
         inkscape:connector-curvature="0" />
    </clipPath>
    <clipPath
       id="clipPath30317">
      <path
         id="path30319"
         d="m 144.567,362.137 68.031,0 0,-70 -68.031,0 0,70 z"
         inkscape:connector-curvature="0" />
    </clipPath>
    <clipPath
       id="clipPath30323">
      <path
         id="path30325"
         d="M 0,841 595,841 595,0 0,0 0,841 Z"
         inkscape:connector-curvature="0" />
    </clipPath>
    <clipPath
       id="clipPath30329">
      <path
         id="path30331"
         d="m 0.36,841.68 595.44,0 L 595.8,0 0.36,0 l 0,841.68 z"
         inkscape:connector-curvature="0" />
    </clipPath>
    <clipPath
       id="clipPath30349">
      <path
         id="path30351"
         d="m 144.567,362.137 68.031,0 0,-70 -68.031,0 0,70 z"
         inkscape:connector-curvature="0" />
    </clipPath>
    <clipPath
       id="clipPath30355">
      <path
         id="path30357"
         d="M 0,841 595,841 595,0 0,0 0,841 Z"
         inkscape:connector-curvature="0" />
    </clipPath>
    <clipPath
       id="clipPath30361">
      <path
         id="path30363"
         d="m 0.36,841.68 595.44,0 L 595.8,0 0.36,0 l 0,841.68 z"
         inkscape:connector-curvature="0" />
    </clipPath>
    <clipPath
       id="clipPath30475">
      <path
         id="path30477"
         d="m 229.606,362.137 68.032,0 0,-70 -68.032,0 0,70 z"
         inkscape:connector-curvature="0" />
    </clipPath>
    <clipPath
       id="clipPath30481">
      <path
         id="path30483"
         d="M 0,841 595,841 595,0 0,0 0,841 Z"
         inkscape:connector-curvature="0" />
    </clipPath>
    <clipPath
       id="clipPath30487">
      <path
         id="path30489"
         d="m 0.36,841.68 595.44,0 L 595.8,0 0.36,0 l 0,841.68 z"
         inkscape:connector-curvature="0" />
    </clipPath>
    <clipPath
       id="clipPath30569">
      <path
         id="path30571"
         d="m 263.589,298.126 c 4.05,3.118 11.069,4.711 11.069,4.711 15.391,4.86 10.531,19.035 10.531,19.035 -0.54,1.62 -1.215,6.21 -1.215,6.21 -1.485,13.095 4.05,21.195 4.05,21.195 -3.241,3.105 -6.075,7.425 -6.075,7.425 -7.966,-2.835 -18.36,-2.551 -18.36,-2.551 0,0 -10.395,-0.284 -18.361,2.551 0,0 -2.834,-4.32 -6.075,-7.425 0,0 5.536,-8.1 4.05,-21.195 0,0 -0.675,-4.59 -1.215,-6.21 0,0 -4.86,-14.175 10.531,-19.035 0,0 7.02,-1.593 11.07,-4.711"
         inkscape:connector-curvature="0" />
    </clipPath>
    <clipPath
       id="clipPath30581">
      <path
         id="path30583"
         d="m 229.606,362.137 68.032,0 0,-70 -68.032,0 0,70 z"
         inkscape:connector-curvature="0" />
    </clipPath>
    <clipPath
       id="clipPath30587">
      <path
         id="path30589"
         d="M 0,841 595,841 595,0 0,0 0,841 Z"
         inkscape:connector-curvature="0" />
    </clipPath>
    <clipPath
       id="clipPath30593">
      <path
         id="path30595"
         d="m 0.36,841.68 595.44,0 L 595.8,0 0.36,0 l 0,841.68 z"
         inkscape:connector-curvature="0" />
    </clipPath>
    <clipPath
       id="clipPath30691">
      <path
         id="path30693"
         d="m 314.646,362.137 68.031,0 0,-70 -68.031,0 0,70 z"
         inkscape:connector-curvature="0" />
    </clipPath>
    <clipPath
       id="clipPath30697">
      <path
         id="path30699"
         d="M 0,841 595,841 595,0 0,0 0,841 Z"
         inkscape:connector-curvature="0" />
    </clipPath>
    <clipPath
       id="clipPath30703">
      <path
         id="path30705"
         d="m 0.36,841.68 595.44,0 L 595.8,0 0.36,0 l 0,841.68 z"
         inkscape:connector-curvature="0" />
    </clipPath>
    <clipPath
       id="clipPath30831">
      <path
         id="path30833"
         d="M 0,841 595,841 595,0 0,0 0,841 Z"
         inkscape:connector-curvature="0" />
    </clipPath>
    <clipPath
       id="clipPath30837">
      <path
         id="path30839"
         d="m 0.36,841.68 595.44,0 L 595.8,0 0.36,0 l 0,841.68 z"
         inkscape:connector-curvature="0" />
    </clipPath>
  </defs>
  <sodipodi:namedview
     id="base"
     pagecolor="#ffffff"
     bordercolor="#666666"
     borderopacity="1.0"
     inkscape:pageopacity="0.0"
     inkscape:pageshadow="2"
     inkscape:zoom="1.1429612"
     inkscape:cx="322.85426"
     inkscape:cy="323.14687"
     inkscape:document-units="px"
     inkscape:current-layer="layer1"
     showgrid="false"
     fit-margin-top="5"
     fit-margin-left="5"
     fit-margin-right="5"
     fit-margin-bottom="5"
     inkscape:window-width="1507"
     inkscape:window-height="880"
     inkscape:window-x="24"
     inkscape:window-y="-3"
     inkscape:window-maximized="1"
     showguides="true"
     inkscape:guide-bbox="true">
    <sodipodi:guide
       position="11.531899,463.69761"
       orientation="1,0"
       id="guide4764" />
    <sodipodi:guide
       position="321.11694,705.75753"
       orientation="1,0"
       id="guide4766" />
    <sodipodi:guide
       position="184.92242,314.91371"
       orientation="0,1"
       id="guide4768" />
    <sodipodi:guide
       position="829.79532,268.86904"
       orientation="0,1"
       id="guide4785" />
    <sodipodi:guide
       position="824.98201,280.54388"
       orientation="0,1"
       id="guide4787" />
    <sodipodi:guide
       position="808.85262,201.94164"
       orientation="1,0"
       id="guide4789" />
    <sodipodi:guide
       position="850.01287,180.30069"
       orientation="1,0"
       id="guide4791" />
    <sodipodi:guide
       position="827.64469,280.54388"
       orientation="1,0"
       id="guide4793" />
    <sodipodi:guide
       position="787.636,43.241348"
       orientation="0,1"
       id="guide4795" />
    <sodipodi:guide
       position="827.64469,187.82339"
       orientation="0,1"
       id="guide4797" />
    <sodipodi:guide
       position="824.27299,231.19011"
       orientation="0,1"
       id="guide4799" />
    <sodipodi:guide
       position="836.43641,106.18633"
       orientation="0,1"
       id="guide4801" />
  </sodipodi:namedview>
  <metadata
     id="metadata7">
    <rdf:RDF>
      <cc:Work
         rdf:about="">
        <dc:format>image/svg+xml</dc:format>
        <dc:type
           rdf:resource="http://purl.org/dc/dcmitype/StillImage" />
        <dc:title></dc:title>
      </cc:Work>
    </rdf:RDF>
  </metadata>
  <g
     inkscape:label="Layer 1"
     inkscape:groupmode="layer"
     id="layer1"
     transform="translate(-337.76434,-940.37651)">
    <g
       clip-path="url(#clipPath29213)"
       id="g29211"
       transform="matrix(6.2408323,0,0,-6.2408323,-1676.7588,5160.3199)">
      <path
         style="fill:#009ddc;fill-opacity:1;fill-rule:nonzero;stroke:none"
         id="path29225"
         d="m 383.61237,625.819 c -1.272,0.201 -3.22,0.798 -8.933,-0.002 l -0.31,0.646 c 1.336,0.934 3.718,2.989 5.398,6.644 2.092,5.77 8.979,23.136 8.979,30.148 0,0.073 0,0.147 -0.002,0.217 -0.132,1.938 -0.967,4.709 -1.943,6.447 -0.264,0.44 -0.564,0.865 -0.884,1.255 -0.014,0.015 -0.091,0.094 -0.091,0.094 l 0.007,0.008 c -0.495,0.586 -0.972,1.018 -1.352,1.315 l 0.323,0.753 c 1.568,-0.692 4.878,-2.268 6.912,-4.107 0.977,0.91 2.805,1.841 4.157,2.269 l 0.256,-0.62 c -0.169,-0.176 -0.186,-0.203 -0.286,-0.373 l -0.009,-0.014 -0.01,-0.014 c -1.236,-1.651 -1.622,-3.337 -1.622,-4.949 0,-1.491 0.329,-2.918 0.625,-4.196 0,0 0.253,-1.14 0.258,-1.165 10e-4,-0.007 3.219,-12.937 3.745,-14.954 0.527,2.017 3.744,14.947 3.747,14.954 0.005,0.025 0.257,1.165 0.257,1.165 0.295,1.278 0.626,2.705 0.626,4.196 0,1.612 -0.387,3.298 -1.622,4.949 l -0.01,0.014 -0.011,0.014 c -0.098,0.17 -0.115,0.197 -0.285,0.373 l 0.256,0.62 c 1.352,-0.428 3.18,-1.359 4.157,-2.269 2.034,1.839 5.343,3.415 6.913,4.107 l 0.323,-0.753 c -0.38,-0.297 -0.858,-0.729 -1.352,-1.315 l 0.007,-0.008 c 0,0 -0.077,-0.079 -0.092,-0.094 -0.32,-0.39 -0.619,-0.815 -0.885,-1.255 -0.975,-1.738 -1.811,-4.509 -1.941,-6.447 -0.002,-0.07 -0.003,-0.144 -0.003,-0.217 0,-7.012 7.013,-24.378 9.105,-30.148 1.68,-3.655 4.061,-5.71 5.398,-6.644 l -0.315,-0.646 c -5.713,0.8 -7.671,0.201 -8.941,0 l -8.546,24.224 c -0.533,-2.035 -1.665,-6.257 -1.663,-6.249 l -0.247,-1.1 c -0.247,-1.074 -0.445,-1.934 -0.445,-2.734 0,-1.187 0.437,-2.245 1.794,-3.671 l -0.22,-0.652 c -0.7,-0.435 -1.987,-0.817 -2.911,-0.86 -0.292,-1.407 -1.939,-3.551 -3.095,-4.541 -1.154,0.99 -2.8,3.134 -3.093,4.541 -0.924,0.043 -2.211,0.425 -2.91,0.86 l -0.219,0.652 c 1.356,1.426 1.793,2.484 1.793,3.671 0,0.8 -0.198,1.66 -0.445,2.734 l -0.247,1.1 c 0.002,-0.008 -1.131,4.214 -1.663,6.249 l -8.433,-24.222"
         inkscape:connector-curvature="0" />
      <path
         style="fill:#009ddc;fill-opacity:1;fill-rule:nonzero;stroke:none"
         id="path29227"
         d="m 349.213,667.486 c -13.021,0 -23.577,-9.19 -23.577,-20.527 0,-11.337 10.556,-20.527 23.577,-20.527 13.021,0 23.577,9.19 23.577,20.527 0,11.337 -10.556,20.527 -23.577,20.527 z m -0.004,-39.001 c -9.823,0 -17.786,8.271 -17.786,18.474 0,10.203 7.963,18.474 17.786,18.474 9.823,0 17.787,-8.271 17.787,-18.474 0,-10.203 -7.964,-18.474 -17.787,-18.474"
         inkscape:connector-curvature="0" />
    </g>
    <path
       style="fill:#009ddc;fill-opacity:1;fill-rule:nonzero;stroke:none"
       id="path29225-3"
       d="m 717.33306,1550.6505 c -7.9383,-1.2545 -20.0955,-4.9802 -55.7494,0.013 l -1.9346,-4.0316 c 8.3377,-5.829 23.2034,-18.6539 33.688,-41.4641 13.0558,-36.0096 56.0364,-144.3879 56.0364,-188.1487 0,-0.4556 0,-0.9175 -0.013,-1.3543 -0.8238,-12.0947 -6.0349,-29.3881 -12.1259,-40.2346 -1.6476,-2.746 -3.5198,-5.3984 -5.5169,-7.8323 -0.087,-0.094 -0.5679,-0.5866 -0.5679,-0.5866 l 0.044,-0.05 c -3.0892,-3.6572 -6.0661,-6.3532 -8.4376,-8.2067 l 2.0158,-4.6994 c 9.7856,4.3187 30.4427,14.1542 43.1366,25.6311 6.0973,-5.6791 17.5055,-11.4893 25.9431,-14.1604 l 1.5977,3.8693 c -1.0547,1.0984 -1.1608,1.2669 -1.7849,2.3278 l -0.056,0.087 -0.062,0.087 c -7.7137,10.3036 -10.1226,20.8257 -10.1226,30.8859 0,9.3051 2.0532,18.2107 3.9005,26.1865 0,0 1.5789,7.1147 1.6101,7.2707 0.01,0.044 20.0893,80.7377 23.372,93.3254 3.2889,-12.5877 23.3656,-93.2817 23.3844,-93.3254 0.031,-0.156 1.6038,-7.2707 1.6038,-7.2707 1.8411,-7.9758 3.9068,-16.8814 3.9068,-26.1865 0,-10.0602 -2.4152,-20.5823 -10.1226,-30.8859 l -0.062,-0.087 -0.069,-0.087 c -0.6116,-1.0609 -0.7177,-1.2294 -1.7787,-2.3278 l 1.5977,-3.8693 c 8.4376,2.6711 19.8458,8.4813 25.9431,14.1604 12.6939,-11.4769 33.3449,-21.3124 43.143,-25.6311 l 2.0158,4.6994 c -2.3716,1.8535 -5.3547,4.5495 -8.4377,8.2067 l 0.044,0.05 c 0,0 -0.4805,0.493 -0.5741,0.5866 -1.9971,2.4339 -3.8631,5.0863 -5.5231,7.8323 -6.0849,10.8465 -11.3022,28.1399 -12.1135,40.2346 -0.013,0.4369 -0.019,0.8987 -0.019,1.3543 0,43.7608 43.767,152.1391 56.8228,188.1487 10.4846,22.8102 25.344,35.6351 33.688,41.4641 l -1.9659,4.0315 c -35.6538,-4.9926 -47.8734,-1.2544 -55.7992,0 l -53.3342,-151.1784 c -3.3264,12.7001 -10.391,39.0489 -10.3785,38.999 l -1.5415,6.8649 c -1.5415,6.7026 -2.7772,12.0698 -2.7772,17.0624 0,7.4079 2.7273,14.0107 11.1961,22.9101 l -1.373,4.069 c -4.3686,2.7148 -12.4005,5.0988 -18.1671,5.3672 -1.8223,8.7808 -12.101,22.1612 -19.3154,28.3396 -7.2019,-6.1784 -17.4743,-19.5588 -19.3028,-28.3396 -5.7666,-0.2684 -13.7985,-2.6524 -18.1609,-5.3672 l -1.3667,-4.069 c 8.4626,-8.8994 11.1898,-15.5022 11.1898,-22.9101 0,-4.9926 -1.2357,-10.3598 -2.7772,-17.0624 l -1.5415,-6.8649 c 0.013,0.05 -7.0583,-26.2989 -10.3785,-38.999 l -52.6289,151.1655"
       inkscape:connector-curvature="0" />
    <path
       style="fill:#009ddc;fill-opacity:1;fill-rule:nonzero;stroke:none"
       id="path29225-3-6"
       d="m 453.02173,1551.5912 -1.9346,-4.0316 c 8.3377,-5.829 29.514,-16.7091 33.688,-41.4641 6.1402,-63.0845 1.6786,-144.8042 -0.3194,-188.152 -0.5582,-12.1099 -6.1283,-31.1633 -12.2193,-42.0098 -1.6476,-2.746 -3.5198,-5.3984 -5.5169,-7.8323 -0.087,-0.094 -0.5679,-0.5866 -0.5679,-0.5866 l 0.044,-0.05 c -3.0892,-3.6572 -6.0661,-6.3532 -8.4376,-8.2067 l 2.0158,-4.6994 c 9.7856,4.3187 30.5477,14.012 43.5826,25.8365 13.0799,-11.8245 33.7909,-21.5028 43.589,-25.8215 l 2.0158,4.6994 c -2.3716,1.8535 -5.3547,4.5495 -8.4377,8.2067 l 0.044,0.05 c 0,0 -0.4805,0.493 -0.5741,0.5866 -1.9971,2.4339 -3.8631,5.0863 -5.5231,7.8323 -6.0849,10.8465 -7.9463,29.8532 -8.689,41.9522 -2.6634,43.3904 -5.4313,125.0275 -0.014,187.7706 4.273,24.7381 25.344,35.6351 33.688,41.4641 l -1.9659,4.0315 c -35.6537,-4.9926 -49.4004,-4.3086 -54.0465,-4.3576 -4.5189,-0.049 -14.7672,-0.2115 -50.4211,4.7817 z"
       inkscape:connector-curvature="0"
       sodipodi:nodetypes="cccscccccccccccccscccccc" />
  </g>
</svg>
